<svg width="341" height="284" viewBox="0 0 341 284" fill="none" xmlns="http://www.w3.org/2000/svg">
<g clip-path="url(#clip0_202_2487)">
<g filter="url(#filter0_f_202_2487)">
<ellipse cx="175.793" cy="257.647" rx="164.793" ry="9.55318" fill="url(#paint0_linear_202_2487)" fill-opacity="0.9"/>
</g>
<g clip-path="url(#clip1_202_2487)">
<path d="M341 0H0V210H341V0Z" fill="#060606"/>
<path d="M229.424 83C229.424 83 221.783 87.4151 221.358 98.5377C221.358 98.5377 215.16 96.9245 211.764 102.953C211.764 102.953 204.377 101.085 200.811 106.519C200.811 106.519 197.839 106.689 196.651 109.491C196.566 109.66 196.566 109.83 196.481 109.915C196.396 109.745 196.396 109.575 196.311 109.491C195.122 106.604 192.151 106.519 192.151 106.519C188.585 101.17 181.198 102.953 181.198 102.953C177.802 96.9245 171.604 98.5377 171.604 98.5377C171.179 87.4151 163.538 83 163.538 83L186.972 89.5377C187.566 92 191.811 94.9717 191.811 94.9717L193 97.8585C193 97.8585 193.764 97.0943 193.255 96.1604C192.745 95.2264 192.49 92.5943 192.49 92.5943L193.849 94.2925H198.773L200.132 92.5943C200.132 92.5943 199.962 95.3113 199.368 96.1604C198.773 97.0094 199.622 97.8585 199.622 97.8585L200.811 94.9717C200.811 94.9717 205.056 92 205.651 89.5377L229.424 83Z" fill="#8E8E8E"/>
<path d="M214.651 88.6038C212.189 89.283 209.726 89.8773 207.264 90.5566L216.604 95.6509L207.094 90.8113L209.387 98.1132L206.84 90.9811C206.755 91.4906 206.585 91.9151 206.245 92.3396C205.906 92.849 205.481 93.3585 205.057 93.783C204.547 94.2075 204.038 94.5472 203.528 94.8868C203.019 95.1415 202.509 95.3962 201.915 95.6509C203.019 95.1415 204.123 94.4622 204.972 93.6132C205.396 93.1887 205.821 92.6792 206.16 92.1698C206.5 91.6604 206.67 91.066 206.67 90.4717V90.3868H206.755C206.84 90.3868 206.84 90.3868 206.924 90.3868C209.472 89.7075 212.019 89.0283 214.481 88.349L218.387 87.3302C219.745 86.9906 220.934 86.7358 222.292 86.3962C221.019 86.7358 219.745 87.1604 218.472 87.5L214.651 88.6038Z" fill="#4C4C4D"/>
<path d="M190.877 95.651C190.283 95.4811 189.774 95.1415 189.179 94.8019C188.67 94.4623 188.16 94.1226 187.651 93.6981C187.141 93.2736 186.717 92.7642 186.462 92.2547C186.208 91.8302 186.038 91.4057 185.953 90.9811L183.491 98.1132L185.783 90.8113L176.274 95.651L185.698 90.5566C183.236 89.8774 180.689 89.1981 178.226 88.6038L174.321 87.5849C172.962 87.2453 171.774 86.8208 170.5 86.4811C171.858 86.8208 173.047 87.0755 174.406 87.4151L178.311 88.434C180.858 89.1132 183.491 89.7925 186.038 90.4717H186.123V90.5566V90.6415C186.208 91.1509 186.377 91.6604 186.632 92.1698C186.972 92.6793 187.396 93.1887 187.821 93.6132C188.67 94.4623 189.774 95.1415 190.877 95.651Z" fill="#4C4C4D"/>
<path fill-rule="evenodd" clip-rule="evenodd" d="M123.717 115.774C123.717 114.585 123.123 113.566 122.189 113.057C122.783 112.462 123.123 111.698 123.123 110.849C123.123 109.066 121.679 107.623 119.896 107.623H119.811H112V108.302V108.387V118.915H112.849C120.83 118.915 120.575 118.915 120.575 118.915C122.274 118.915 123.717 117.557 123.717 115.774ZM113.528 112.547V108.981H119.811C120.745 108.981 121.594 109.745 121.594 110.764C121.594 111.783 120.83 112.547 119.811 112.547H113.528ZM117.858 113.991H113.613V117.557H120.491C121.425 117.557 122.274 116.792 122.274 115.774C122.274 114.84 121.509 113.991 120.491 113.991H117.858ZM141.972 118.915L136.198 107.538H135.349C134.84 107.538 134.5 107.792 134.245 108.217L128.811 118.915H130.425L135.434 109.151L139.679 117.472H134.415L133.651 118.915H141.972ZM149.613 111.868C150.038 111.868 150.377 112.208 150.377 112.632V119H149.613C149.189 119 148.849 118.66 148.849 118.236V111.868H149.613ZM154.028 107.623C154.453 107.623 154.792 107.962 154.792 108.387V109.066H145.283C144.858 109.066 144.519 108.726 144.519 108.302V107.623H154.028ZM161.415 113.311C161.415 110.934 163.283 109.066 165.66 109.066H169.821C170.245 109.066 170.585 108.726 170.585 108.302V107.623H165.66C162.519 107.623 159.972 110.17 159.972 113.311C159.972 116.453 162.519 119 165.66 119C165.66 119 165.575 119 170.585 119V118.321C170.585 117.896 170.245 117.557 169.821 117.557H165.66C163.283 117.557 161.415 115.604 161.415 113.311ZM181.453 107.623L187.226 119H178.906L179.67 117.557H184.934L180.689 109.236L175.679 119H173.981L179.415 108.302C179.67 107.877 180.094 107.623 180.519 107.623H181.453ZM194.528 113.736L191.641 108.132C191.472 107.792 191.132 107.538 190.707 107.538H189.689L193.934 115.774L194.528 114.67C194.698 114.415 194.698 114.075 194.528 113.736ZM202.934 107.623H202C201.575 107.623 201.236 107.877 201.066 108.217L195.547 119H197.16L202.934 107.623ZM217.453 117.557C217.877 117.557 218.217 117.896 218.217 118.321V119H209.047H207.434V108.896V107.623H218.047V108.302C218.047 108.726 217.707 109.066 217.283 109.066H209.047V112.632H217.028V113.311C217.028 113.736 216.689 114.075 216.264 114.075H208.962V117.641H217.453V117.557Z" fill="#8E8E8E"/>
<path d="M160.816 137.126C160.032 137.126 159.341 136.977 158.744 136.678C158.147 136.37 157.685 135.945 157.358 135.404C157.031 134.863 156.868 134.251 156.868 133.57V130.588C156.868 129.916 157.031 129.314 157.358 128.782C157.685 128.25 158.147 127.835 158.744 127.536C159.341 127.228 160.032 127.074 160.816 127.074C161.6 127.074 162.291 127.228 162.888 127.536C163.485 127.835 163.947 128.25 164.274 128.782C164.601 129.314 164.764 129.916 164.764 130.588V133.57C164.764 134.251 164.596 134.863 164.26 135.404C163.933 135.945 163.471 136.37 162.874 136.678C162.277 136.977 161.591 137.126 160.816 137.126ZM160.816 136.314C161.787 136.314 162.538 136.067 163.07 135.572C163.602 135.077 163.868 134.41 163.868 133.57V130.616C163.868 129.776 163.602 129.113 163.07 128.628C162.547 128.133 161.796 127.886 160.816 127.886C159.836 127.886 159.08 128.133 158.548 128.628C158.025 129.113 157.764 129.776 157.764 130.616V133.57C157.764 134.41 158.025 135.077 158.548 135.572C159.08 136.067 159.836 136.314 160.816 136.314ZM171.323 137.126C170.567 137.126 169.89 136.991 169.293 136.72C168.705 136.44 168.243 136.053 167.907 135.558C167.58 135.063 167.417 134.499 167.417 133.864V130.308C167.417 129.683 167.58 129.127 167.907 128.642C168.233 128.147 168.691 127.765 169.279 127.494C169.867 127.214 170.539 127.074 171.295 127.074C172.051 127.074 172.723 127.195 173.311 127.438C173.899 127.681 174.356 128.021 174.683 128.46C175.009 128.899 175.173 129.398 175.173 129.958C175.173 130.191 175.089 130.383 174.921 130.532C174.753 130.672 174.538 130.733 174.277 130.714C174.286 130.667 174.291 130.518 174.291 130.266C174.291 129.809 174.165 129.398 173.913 129.034C173.661 128.67 173.306 128.39 172.849 128.194C172.391 127.989 171.873 127.886 171.295 127.886C170.716 127.886 170.203 127.989 169.755 128.194C169.307 128.399 168.957 128.689 168.705 129.062C168.453 129.426 168.327 129.841 168.327 130.308V133.864C168.327 134.34 168.453 134.765 168.705 135.138C168.957 135.511 169.311 135.801 169.769 136.006C170.226 136.211 170.744 136.314 171.323 136.314C171.911 136.314 172.433 136.211 172.891 136.006C173.348 135.801 173.703 135.516 173.955 135.152C174.207 134.779 174.333 134.359 174.333 133.892V132.856H172.149C171.915 132.856 171.724 132.781 171.575 132.632C171.435 132.483 171.365 132.291 171.365 132.058H174.781C174.911 132.058 175.019 132.1 175.103 132.184C175.196 132.268 175.243 132.371 175.243 132.492V133.906C175.243 134.531 175.075 135.087 174.739 135.572C174.412 136.057 173.95 136.44 173.353 136.72C172.755 136.991 172.079 137.126 171.323 137.126ZM180.444 137.126C179.931 137.126 179.469 137.051 179.058 136.902C178.647 136.743 178.325 136.529 178.092 136.258C177.859 135.978 177.742 135.661 177.742 135.306C177.742 134.923 177.947 134.727 178.358 134.718C178.489 135.829 179.193 136.384 180.472 136.384C181.06 136.384 181.513 136.286 181.83 136.09C182.157 135.885 182.32 135.591 182.32 135.208C182.32 134.947 182.255 134.732 182.124 134.564C182.003 134.396 181.793 134.251 181.494 134.13C181.205 134.009 180.789 133.892 180.248 133.78C179.389 133.603 178.769 133.36 178.386 133.052C178.003 132.744 177.812 132.305 177.812 131.736C177.812 131.185 178.045 130.737 178.512 130.392C178.979 130.047 179.576 129.874 180.304 129.874C181.004 129.874 181.601 130.028 182.096 130.336C182.591 130.644 182.852 131.045 182.88 131.54C182.889 131.727 182.833 131.876 182.712 131.988C182.6 132.091 182.432 132.147 182.208 132.156C182.171 131.661 181.984 131.279 181.648 131.008C181.321 130.728 180.873 130.588 180.304 130.588C179.809 130.588 179.408 130.695 179.1 130.91C178.792 131.115 178.638 131.391 178.638 131.736C178.638 132.081 178.769 132.352 179.03 132.548C179.301 132.744 179.758 132.907 180.402 133.038C181.391 133.234 182.096 133.495 182.516 133.822C182.936 134.139 183.146 134.587 183.146 135.166C183.146 135.773 182.903 136.253 182.418 136.608C181.933 136.953 181.275 137.126 180.444 137.126Z" fill="#8E8E8E"/>
</g>
<g clip-path="url(#clip2_202_2487)">
<path d="M341 0H0V210H341V0Z" fill="#060606"/>
<path d="M201.424 76C201.424 76 193.783 80.4151 193.358 91.5377C193.358 91.5377 187.16 89.9245 183.764 95.9528C183.764 95.9528 176.377 94.0849 172.811 99.5189C172.811 99.5189 169.839 99.6887 168.651 102.491C168.566 102.66 168.566 102.83 168.481 102.915C168.396 102.745 168.396 102.575 168.311 102.491C167.122 99.6038 164.151 99.5189 164.151 99.5189C160.585 94.1698 153.198 95.9528 153.198 95.9528C149.802 89.9245 143.604 91.5377 143.604 91.5377C143.179 80.4151 135.538 76 135.538 76L158.972 82.5377C159.566 85 163.811 87.9717 163.811 87.9717L165 90.8585C165 90.8585 165.764 90.0943 165.255 89.1604C164.745 88.2264 164.49 85.5943 164.49 85.5943L165.849 87.2925H170.773L172.132 85.5943C172.132 85.5943 171.962 88.3113 171.368 89.1604C170.773 90.0094 171.622 90.8585 171.622 90.8585L172.811 87.9717C172.811 87.9717 177.056 85 177.651 82.5377L201.424 76Z" fill="#8E8E8E"/>
<path d="M186.651 81.6038C184.189 82.283 181.726 82.8773 179.264 83.5566L188.604 88.6509L179.094 83.8113L181.387 91.1132L178.84 83.9811C178.755 84.4906 178.585 84.9151 178.245 85.3396C177.906 85.849 177.481 86.3585 177.057 86.783C176.547 87.2075 176.038 87.5472 175.528 87.8868C175.019 88.1415 174.509 88.3962 173.915 88.6509C175.019 88.1415 176.123 87.4622 176.972 86.6132C177.396 86.1887 177.821 85.6792 178.16 85.1698C178.5 84.6604 178.67 84.066 178.67 83.4717V83.3868H178.755C178.84 83.3868 178.84 83.3868 178.924 83.3868C181.472 82.7075 184.019 82.0283 186.481 81.349L190.387 80.3302C191.745 79.9906 192.934 79.7358 194.292 79.3962C193.019 79.7358 191.745 80.1604 190.472 80.5L186.651 81.6038Z" fill="#060606"/>
<path d="M162.877 88.651C162.283 88.4811 161.774 88.1415 161.179 87.8019C160.67 87.4623 160.16 87.1226 159.651 86.6981C159.141 86.2736 158.717 85.7642 158.462 85.2547C158.208 84.8302 158.038 84.4057 157.953 83.9811L155.491 91.1132L157.783 83.8113L148.274 88.651L157.698 83.5566C155.236 82.8774 152.689 82.1981 150.226 81.6038L146.321 80.5849C144.962 80.2453 143.774 79.8208 142.5 79.4811C143.858 79.8208 145.047 80.0755 146.406 80.4151L150.311 81.434C152.858 82.1132 155.491 82.7925 158.038 83.4717H158.123V83.5566V83.6415C158.208 84.1509 158.377 84.6604 158.632 85.1698C158.972 85.6793 159.396 86.1887 159.821 86.6132C160.67 87.4623 161.774 88.1415 162.877 88.651Z" fill="#060606"/>
<path fill-rule="evenodd" clip-rule="evenodd" d="M95.717 108.774C95.717 107.585 95.1226 106.566 94.1887 106.057C94.783 105.462 95.1226 104.698 95.1226 103.849C95.1226 102.066 93.6792 100.623 91.8962 100.623H91.8113H84V101.302V101.387V111.915H84.8491C92.8302 111.915 92.5755 111.915 92.5755 111.915C94.2736 111.915 95.717 110.557 95.717 108.774ZM85.5283 105.547V101.981H91.8113C92.7453 101.981 93.5943 102.745 93.5943 103.764C93.5943 104.783 92.8302 105.547 91.8113 105.547H85.5283ZM89.8585 106.991H85.6132V110.557H92.4906C93.4245 110.557 94.2736 109.792 94.2736 108.774C94.2736 107.84 93.5094 106.991 92.4906 106.991H89.8585ZM113.972 111.915L108.198 100.538H107.349C106.84 100.538 106.5 100.792 106.245 101.217L100.811 111.915H102.425L107.434 102.151L111.679 110.472H106.415L105.651 111.915H113.972ZM121.613 104.868C122.038 104.868 122.377 105.208 122.377 105.632V112H121.613C121.189 112 120.849 111.66 120.849 111.236V104.868H121.613ZM126.028 100.623C126.453 100.623 126.792 100.962 126.792 101.387V102.066H117.283C116.858 102.066 116.519 101.726 116.519 101.302V100.623H126.028ZM133.415 106.311C133.415 103.934 135.283 102.066 137.66 102.066H141.821C142.245 102.066 142.585 101.726 142.585 101.302V100.623H137.66C134.519 100.623 131.972 103.17 131.972 106.311C131.972 109.453 134.519 112 137.66 112C137.66 112 137.575 112 142.585 112V111.321C142.585 110.896 142.245 110.557 141.821 110.557H137.66C135.283 110.557 133.415 108.604 133.415 106.311ZM153.453 100.623L159.226 112H150.906L151.67 110.557H156.934L152.689 102.236L147.679 112H145.981L151.415 101.302C151.67 100.877 152.094 100.623 152.519 100.623H153.453ZM166.528 106.736L163.641 101.132C163.472 100.792 163.132 100.538 162.707 100.538H161.689L165.934 108.774L166.528 107.67C166.698 107.415 166.698 107.075 166.528 106.736ZM174.934 100.623H174C173.575 100.623 173.236 100.877 173.066 101.217L167.547 112H169.16L174.934 100.623ZM189.453 110.557C189.877 110.557 190.217 110.896 190.217 111.321V112H181.047H179.434V101.896V100.623H190.047V101.302C190.047 101.726 189.707 102.066 189.283 102.066H181.047V105.632H189.028V106.311C189.028 106.736 188.689 107.075 188.264 107.075H180.962V110.641H189.453V110.557Z" fill="#8E8E8E"/>
<path d="M215.856 100.784C218.96 100.784 221.472 103.296 221.472 106.4C221.472 109.504 218.96 112.016 215.856 112.016C212.752 112.016 210.24 109.504 210.24 106.4C210.24 103.296 212.752 100.784 215.856 100.784ZM215.856 110.608C218.176 110.608 220.064 108.72 220.064 106.4C220.064 104.08 218.176 102.192 215.856 102.192C213.536 102.192 211.648 104.08 211.648 106.4C211.648 108.72 213.536 110.608 215.856 110.608ZM237.078 107.104H237.798V112H236.342C231.542 112 231.606 112.016 231.606 112.016C228.502 112.016 225.99 109.504 225.99 106.4C225.99 103.296 228.502 100.784 231.606 100.784C231.59 100.784 231.622 100.784 237.11 100.784V101.456C237.11 101.872 236.79 102.192 236.39 102.192H231.606C229.286 102.192 227.398 104.08 227.398 106.4C227.398 108.72 229.286 110.608 231.606 110.608H236.342V107.824C236.342 107.424 236.662 107.104 237.078 107.104ZM247.093 107.284C248.401 107.284 249.457 108.34 249.457 109.648C249.457 110.956 248.389 112.012 247.081 112.012C247.081 112.012 247.333 112.012 241.609 112.012V111.508C241.609 111.196 241.849 110.956 242.161 110.956C243.493 110.956 246.817 110.956 246.997 110.956H247.177C247.861 110.908 248.401 110.344 248.401 109.648C248.401 108.928 247.813 108.34 247.081 108.34H247.057C246.769 108.328 246.529 108.088 246.529 107.788V107.272L247.093 107.284ZM243.853 108.328C242.545 108.328 241.489 107.26 241.489 105.952C241.489 104.656 242.545 103.588 243.853 103.588C243.889 103.588 243.913 103.588 243.937 103.588H249.121V104.092C249.121 104.404 248.869 104.644 248.569 104.644H243.853C243.133 104.644 242.545 105.232 242.545 105.952C242.545 106.684 243.133 107.272 243.853 107.272H243.877C244.177 107.272 244.417 107.524 244.417 107.824V108.328H243.853Z" fill="#8E8E8E"/>
<path d="M198.64 108.336V107.088H202.512V108.336H198.64Z" fill="#8E8E8E"/>
</g>
</g>
<defs>
<filter id="filter0_f_202_2487" x="-14.7935" y="222.3" width="381.173" height="70.6935" filterUnits="userSpaceOnUse" color-interpolation-filters="sRGB">
<feFlood flood-opacity="0" result="BackgroundImageFix"/>
<feBlend mode="normal" in="SourceGraphic" in2="BackgroundImageFix" result="shape"/>
<feGaussianBlur stdDeviation="12.8968" result="effect1_foregroundBlur_202_2487"/>
</filter>
<linearGradient id="paint0_linear_202_2487" x1="340.585" y1="257.647" x2="11" y2="257.647" gradientUnits="userSpaceOnUse">
<stop stop-opacity="0"/>
<stop offset="0.6875" stop-color="#0A0A0A"/>
</linearGradient>
<clipPath id="clip0_202_2487">
<rect width="341" height="284" fill="white"/>
</clipPath>
<clipPath id="clip1_202_2487">
<rect width="341" height="201" fill="white"/>
</clipPath>
<clipPath id="clip2_202_2487">
<rect width="341" height="201" fill="white"/>
</clipPath>
</defs>
</svg>
