<svg width="697" height="75" viewBox="0 0 697 75" fill="none" xmlns="http://www.w3.org/2000/svg">
<path fill-rule="evenodd" clip-rule="evenodd" d="M76.8149 53.6169C76.8149 45.9727 72.6742 39.2839 66.6223 35.674C70.3386 31.8517 72.5682 26.6493 72.5682 20.9159C72.5682 9.44935 63.2249 0 51.652 0H50.9091H0.0524539V4.45925C0.0524539 4.68404 0.0672412 4.90465 0.0958407 5.12019H0V74.427H5.40015C57.69 74.4336 55.8992 74.5331 55.8992 74.5331C67.472 74.5331 76.8149 65.1898 76.8149 53.6169ZM10.396 32.5949V9.34317H51.652C58.0224 9.34317 63.2249 14.5456 63.2249 20.9159C63.2249 27.3925 58.0224 32.5949 51.652 32.5949H10.396ZM38.4868 41.938H10.396V65.1898H55.8992C62.2695 65.1898 67.472 59.9873 67.472 53.6169C67.472 47.2466 62.2695 42.0444 55.8992 42.0444V41.938H38.4868ZM196.781 74.4267L158.877 0H153.144C150.065 0 147.304 1.80493 145.818 4.45925L110.25 74.4267H120.867L153.462 10.5111L181.386 65.1898H146.986L142.208 74.4267H196.781ZM247.096 27.9233C249.751 27.9233 251.98 30.153 251.98 32.8073V74.4267H247.096C244.442 74.4267 242.319 72.3035 242.319 69.649V27.9233H247.096ZM275.869 0C278.523 0 280.647 2.22962 280.647 4.88392V9.34317H218.43C215.775 9.34317 213.546 7.21971 213.546 4.45925V0H275.869ZM324.193 37.2664C324.193 21.8715 336.721 9.34317 352.117 9.34317H379.507C382.162 9.34317 384.394 7.21971 384.394 4.45925V0H352.117C331.518 0 314.849 16.6691 314.849 37.2664C314.849 57.8641 331.518 74.5331 352.117 74.5331C352.117 74.5331 351.691 74.4267 384.394 74.4267V70.0739C384.394 67.3134 382.162 65.1898 379.507 65.1898H352.117C336.721 65.1898 324.193 52.6615 324.193 37.2664ZM455.53 0L493.434 74.4267H438.862L443.637 65.1898H478.038L450.114 10.5111L417.519 74.4267H406.901L442.469 4.45925C443.956 1.80493 446.718 0 449.795 0H455.53ZM541.519 40.4517L522.834 3.82221C521.666 1.48641 519.223 0 516.676 0H510.2L537.805 54.0418L541.519 46.716C542.476 44.8049 542.476 42.3629 541.519 40.4517ZM596.729 0H590.356C587.705 0 585.366 1.48641 584.095 3.82221L548.1 74.5331H558.825L596.729 0ZM691.739 65.1898C694.393 65.1898 696.621 67.3134 696.621 70.0739V74.4267L636.411 74.427H626.015V8.58554H626.018V0H695.561V4.45925C695.561 7.21971 693.329 9.34317 690.675 9.34317H636.411V32.5949H688.977V37.0543C688.977 39.7084 686.852 41.938 684.094 41.938H636.411V65.1898H691.739Z" fill="white"/>
</svg>
