<svg width="125" height="51" viewBox="0 0 125 51" fill="none" xmlns="http://www.w3.org/2000/svg">
<path d="M124.8 0C124.8 0 110.4 8.3 109.6 29.4C109.6 29.4 97.9 26.4 91.4 37.8C91.4 37.8 77.4 34.3 70.6 44.5C70.6 44.5 64.9 44.8 62.7 50.2C62.6 50.5 62.5 50.8 62.4 51C62.3 50.7 62.2 50.4 62.1 50.2C59.9 44.8 54.2 44.5 54.2 44.5C47.5 34.3 33.4 37.8 33.4 37.8C26.9 26.4 15.2 29.4 15.2 29.4C14.4 8.3 0 0 0 0L44.4 12.3C45.6 17 53.6 22.6 53.6 22.6L55.9 28.1C55.9 28.1 57.4 26.6 56.4 24.9C55.4 23.2 55 18.1 55 18.1L57.6 21.3H67L69.6 18.1C69.6 18.1 69.2 23.2 68.2 24.9C67.2 26.6 68.7 28.1 68.7 28.1L71 22.6C71 22.6 79 17 80.2 12.3L124.8 0Z" fill="url(#paint0_linear_649_677)"/>
<defs>
<linearGradient id="paint0_linear_649_677" x1="62.42" y1="51.0499" x2="62.42" y2="0" gradientUnits="userSpaceOnUse">
<stop stop-color="#007AFF"/>
<stop offset="0.4615" stop-color="#004289"/>
<stop offset="1" stop-color="#001934"/>
</linearGradient>
</defs>
</svg>
