<svg width="394" height="281" viewBox="0 0 394 281" fill="none" xmlns="http://www.w3.org/2000/svg">
<path d="M0 75L349.272 0.759907L393.053 206.731L43.7805 280.971L0 75Z" fill="#060606"/>
<path d="M182.453 120.934L179.217 117.303L183.857 116.317L187.093 119.947L182.453 120.934Z" fill="white"/>
<path d="M195.325 135.805L185.427 124.62L190.224 123.601L193.528 127.352L195.021 122.581L199.741 121.578L195.325 135.805Z" fill="white"/>
<path d="M196.318 117.987L197.722 113.369L202.438 112.367L200.958 117L196.318 117.987Z" fill="white"/>
<path d="M163.58 151.321L165.427 160.009L163.448 160.429L161.601 151.741L163.58 151.321Z" fill="white"/>
<path d="M175.819 157.8L173.84 158.221L168.093 153.21L169.36 159.173L167.382 159.593L165.532 150.893L167.511 150.472L173.261 155.495L171.991 149.52L173.969 149.099L175.819 157.8Z" fill="white"/>
<path d="M184.789 146.813L183.017 156.27L180.615 156.781L175.15 148.861L177.27 148.411L181.452 154.742L182.683 147.26L184.789 146.813Z" fill="white"/>
<path d="M187.953 146.14L189.8 154.828L187.822 155.249L185.975 146.56L187.953 146.14Z" fill="white"/>
<path d="M190.349 150.158C190.167 149.303 190.221 148.494 190.512 147.73C190.81 146.955 191.296 146.301 191.971 145.767C192.653 145.223 193.465 144.851 194.407 144.651C195.509 144.417 196.528 144.46 197.463 144.782C198.398 145.104 199.124 145.669 199.641 146.479L197.365 146.962C197.051 146.596 196.664 146.352 196.206 146.233C195.756 146.112 195.263 146.108 194.726 146.222C194.152 146.345 193.664 146.574 193.263 146.911C192.869 147.237 192.591 147.643 192.428 148.129C192.275 148.612 192.26 149.145 192.384 149.726C192.505 150.298 192.735 150.778 193.074 151.166C193.42 151.544 193.84 151.805 194.334 151.952C194.836 152.088 195.374 152.095 195.949 151.973C196.486 151.859 196.935 151.655 197.296 151.362C197.664 151.058 197.918 150.674 198.056 150.211L200.331 149.728C200.19 150.686 199.758 151.502 199.035 152.176C198.319 152.84 197.405 153.29 196.293 153.526C195.351 153.726 194.459 153.721 193.616 153.51C192.782 153.288 192.071 152.888 191.486 152.31C190.909 151.73 190.53 151.013 190.349 150.158Z" fill="white"/>
<path d="M202.735 142.998L204.582 151.686L202.603 152.107L200.756 143.418L202.735 142.998Z" fill="white"/>
<path d="M211.134 150.385C210.211 150.581 209.322 150.57 208.469 150.353C207.615 150.135 206.89 149.738 206.295 149.162C205.698 148.578 205.309 147.859 205.127 147.004C204.947 146.157 205.012 145.35 205.322 144.582C205.629 143.805 206.129 143.144 206.82 142.598C207.512 142.052 208.319 141.681 209.242 141.485C210.175 141.286 211.064 141.297 211.908 141.516C212.762 141.734 213.482 142.136 214.07 142.722C214.665 143.298 215.052 144.01 215.232 144.856C215.414 145.711 215.351 146.526 215.043 147.303C214.743 148.069 214.248 148.725 213.556 149.271C212.865 149.817 212.057 150.188 211.134 150.385ZM210.803 148.829C211.397 148.702 211.895 148.475 212.298 148.147C212.699 147.81 212.98 147.395 213.141 146.901C213.302 146.407 213.321 145.869 213.197 145.289C213.074 144.708 212.839 144.228 212.493 143.851C212.145 143.465 211.72 143.204 211.219 143.068C210.717 142.932 210.169 142.927 209.576 143.053C208.982 143.179 208.479 143.407 208.067 143.738C207.664 144.066 207.382 144.478 207.221 144.972C207.059 145.457 207.039 145.99 207.162 146.571C207.286 147.152 207.522 147.635 207.87 148.021C208.217 148.407 208.643 148.672 209.146 148.817C209.658 148.951 210.21 148.955 210.803 148.829Z" fill="white"/>
<path d="M217.737 139.809L218.88 145.187C219.005 145.776 219.275 146.191 219.691 146.432C220.105 146.665 220.627 146.714 221.259 146.58C221.899 146.444 222.361 146.185 222.645 145.804C222.926 145.415 223.004 144.926 222.879 144.336L221.736 138.959L223.729 138.535L224.869 143.9C225.026 144.639 224.976 145.305 224.718 145.897C224.467 146.479 224.063 146.964 223.505 147.352C222.957 147.737 222.311 148.009 221.566 148.167C220.831 148.323 220.135 148.337 219.477 148.208C218.829 148.077 218.277 147.795 217.821 147.363C217.363 146.923 217.055 146.333 216.898 145.595L215.758 140.23L217.737 139.809Z" fill="white"/>
<path d="M230.912 146.181C230.224 146.327 229.58 146.355 228.98 146.266C228.39 146.175 227.893 145.968 227.489 145.646C227.086 145.324 226.823 144.899 226.701 144.37L228.821 143.919C228.925 144.27 229.126 144.522 229.425 144.675C229.733 144.827 230.113 144.854 230.565 144.758C231.027 144.66 231.369 144.488 231.593 144.241C231.814 143.985 231.891 143.7 231.824 143.385C231.77 143.128 231.635 142.935 231.421 142.807C231.206 142.679 230.953 142.599 230.66 142.565C230.375 142.522 229.985 142.492 229.489 142.476C228.813 142.446 228.256 142.396 227.817 142.324C227.386 142.242 226.99 142.07 226.63 141.809C226.276 141.537 226.041 141.127 225.925 140.58C225.816 140.065 225.866 139.586 226.077 139.142C226.288 138.698 226.636 138.321 227.122 138.009C227.605 137.69 228.186 137.458 228.865 137.314C229.882 137.097 230.753 137.142 231.478 137.448C232.21 137.743 232.693 138.274 232.924 139.04L230.748 139.502C230.666 139.208 230.467 138.994 230.154 138.861C229.847 138.718 229.473 138.694 229.03 138.788C228.644 138.87 228.352 139.023 228.153 139.247C227.964 139.47 227.905 139.747 227.975 140.079C228.025 140.311 228.151 140.488 228.354 140.61C228.565 140.721 228.808 140.799 229.083 140.845C229.367 140.88 229.757 140.91 230.255 140.934C230.931 140.964 231.489 141.019 231.929 141.099C232.37 141.179 232.771 141.353 233.134 141.623C233.496 141.893 233.735 142.298 233.85 142.837C233.948 143.302 233.904 143.762 233.715 144.219C233.526 144.675 233.194 145.08 232.717 145.433C232.239 145.777 231.637 146.026 230.912 146.181Z" fill="white"/>
<path d="M158.341 174.593C158.087 174.291 157.768 174.084 157.385 173.973C157.001 173.856 156.58 173.846 156.123 173.944C155.666 174.041 155.273 174.223 154.945 174.492C154.621 174.753 154.39 175.083 154.252 175.48C154.119 175.87 154.101 176.295 154.199 176.753C154.296 177.211 154.485 177.591 154.765 177.894C155.052 178.195 155.396 178.402 155.8 178.515C156.208 178.621 156.641 178.625 157.098 178.528C157.736 178.392 158.225 178.11 158.566 177.682C158.906 177.253 159.049 176.741 158.995 176.145L156.385 176.7L156.253 176.08L159.773 175.331L159.898 175.918C159.95 176.409 159.875 176.886 159.673 177.35C159.469 177.808 159.158 178.204 158.738 178.538C158.317 178.867 157.819 179.093 157.244 179.215C156.637 179.344 156.056 179.336 155.502 179.191C154.947 179.041 154.474 178.77 154.084 178.38C153.7 177.989 153.447 177.508 153.326 176.938C153.205 176.368 153.24 175.827 153.432 175.313C153.628 174.792 153.95 174.353 154.398 173.995C154.844 173.632 155.37 173.385 155.977 173.256C156.672 173.109 157.317 173.132 157.915 173.326C158.518 173.519 159.001 173.869 159.364 174.376L158.341 174.593Z" fill="#B3B3B3"/>
<path d="M161.609 174.214C161.703 173.92 161.873 173.67 162.117 173.467C162.368 173.262 162.693 173.116 163.094 173.031L163.261 173.819L163.036 173.867C162.079 174.07 161.699 174.636 161.896 175.563L162.427 178.061L161.572 178.243L160.596 173.65L161.45 173.468L161.609 174.214Z" fill="#B3B3B3"/>
<path d="M167.333 177.097C166.852 177.199 166.393 177.195 165.957 177.083C165.527 176.97 165.162 176.758 164.861 176.449C164.564 176.132 164.366 175.736 164.265 175.261C164.165 174.792 164.19 174.355 164.339 173.949C164.494 173.537 164.748 173.194 165.102 172.92C165.454 172.641 165.875 172.449 166.363 172.345C166.851 172.241 167.313 172.245 167.748 172.357C168.183 172.463 168.551 172.671 168.852 172.981C169.16 173.289 169.364 173.681 169.465 174.156C169.566 174.631 169.536 175.075 169.376 175.489C169.22 175.896 168.963 176.24 168.604 176.52C168.245 176.801 167.821 176.993 167.333 177.097ZM167.191 176.426C167.498 176.361 167.772 176.236 168.013 176.05C168.255 175.864 168.43 175.626 168.538 175.334C168.653 175.041 168.671 174.71 168.592 174.342C168.514 173.973 168.366 173.677 168.149 173.455C167.931 173.232 167.678 173.088 167.389 173.021C167.099 172.948 166.801 172.944 166.494 173.009C166.181 173.076 165.907 173.201 165.671 173.386C165.441 173.563 165.275 173.797 165.173 174.087C165.071 174.377 165.06 174.707 165.138 175.076C165.217 175.45 165.36 175.75 165.564 175.975C165.776 176.199 166.023 176.348 166.307 176.422C166.59 176.49 166.884 176.492 167.191 176.426Z" fill="#B3B3B3"/>
<path d="M174.664 170.66L175.64 175.252L174.786 175.434L174.641 174.755C174.529 175.024 174.339 175.257 174.074 175.454C173.813 175.644 173.508 175.776 173.157 175.85C172.757 175.935 172.382 175.939 172.032 175.862C171.68 175.779 171.379 175.609 171.129 175.353C170.884 175.095 170.717 174.754 170.627 174.33L170.055 171.639L170.9 171.46L171.45 174.049C171.546 174.502 171.749 174.824 172.058 175.015C172.365 175.201 172.741 175.247 173.186 175.152C173.642 175.055 173.975 174.853 174.185 174.546C174.394 174.238 174.448 173.844 174.346 173.364L173.809 170.841L174.664 170.66Z" fill="#B3B3B3"/>
<path d="M177.14 171.018C177.253 170.719 177.457 170.448 177.752 170.205C178.052 169.954 178.424 169.782 178.868 169.687C179.325 169.59 179.759 169.6 180.17 169.717C180.587 169.833 180.939 170.047 181.228 170.359C181.516 170.666 181.709 171.054 181.809 171.523C181.908 171.987 181.889 172.423 181.754 172.832C181.618 173.24 181.384 173.585 181.051 173.866C180.725 174.145 180.333 174.334 179.876 174.431C179.438 174.524 179.032 174.52 178.657 174.418C178.288 174.31 177.987 174.143 177.756 173.918L178.399 176.943L177.545 177.125L176.106 170.353L176.96 170.172L177.14 171.018ZM180.936 171.709C180.863 171.363 180.72 171.077 180.509 170.854C180.298 170.63 180.044 170.48 179.746 170.403C179.455 170.324 179.15 170.319 178.831 170.387C178.518 170.454 178.242 170.585 178.002 170.782C177.768 170.972 177.597 171.216 177.49 171.513C177.389 171.803 177.374 172.119 177.446 172.46C177.52 172.806 177.663 173.094 177.875 173.323C178.092 173.546 178.347 173.699 178.64 173.783C178.937 173.859 179.243 173.865 179.556 173.798C179.875 173.73 180.151 173.601 180.386 173.411C180.625 173.215 180.796 172.971 180.898 172.681C180.998 172.385 181.011 172.061 180.936 171.709Z" fill="#B3B3B3"/>
<path d="M188.187 172.664C187.705 172.767 187.246 172.762 186.811 172.65C186.381 172.537 186.016 172.326 185.714 172.016C185.418 171.699 185.22 171.304 185.119 170.829C185.019 170.359 185.044 169.922 185.193 169.517C185.347 169.104 185.601 168.761 185.955 168.487C186.308 168.208 186.728 168.016 187.216 167.913C187.704 167.809 188.166 167.813 188.602 167.925C189.037 168.031 189.405 168.239 189.706 168.548C190.014 168.857 190.218 169.249 190.319 169.723C190.42 170.198 190.39 170.643 190.229 171.056C190.074 171.463 189.816 171.807 189.458 172.088C189.099 172.368 188.675 172.561 188.187 172.664ZM188.045 171.994C188.351 171.929 188.625 171.803 188.867 171.617C189.109 171.432 189.284 171.193 189.392 170.902C189.506 170.609 189.524 170.278 189.446 169.909C189.367 169.54 189.22 169.245 189.002 169.022C188.785 168.8 188.532 168.655 188.243 168.588C187.953 168.515 187.654 168.512 187.348 168.577C187.035 168.643 186.761 168.769 186.525 168.953C186.295 169.131 186.129 169.364 186.027 169.655C185.925 169.945 185.913 170.274 185.992 170.643C186.071 171.018 186.213 171.317 186.418 171.542C186.629 171.766 186.877 171.915 187.161 171.989C187.443 172.057 187.738 172.059 188.045 171.994Z" fill="#B3B3B3"/>
<path d="M193.182 167.38L192.103 167.61L192.945 171.574L192.091 171.756L191.249 167.791L190.582 167.933L190.449 167.304L191.115 167.163L191.046 166.836C190.936 166.322 191.004 165.916 191.248 165.619C191.497 165.315 191.95 165.093 192.608 164.953L192.743 165.59C192.367 165.67 192.116 165.794 191.988 165.961C191.865 166.122 191.836 166.353 191.9 166.654L191.969 166.981L193.049 166.752L193.182 167.38Z" fill="#B3B3B3"/>
<path d="M196.582 167.744C196.461 167.174 196.496 166.632 196.688 166.118C196.879 165.599 197.194 165.158 197.633 164.796C198.079 164.433 198.606 164.187 199.213 164.058C199.926 163.906 200.581 163.927 201.179 164.121C201.776 164.316 202.257 164.669 202.621 165.181L201.597 165.399C201.341 165.086 201.021 164.87 200.636 164.754C200.258 164.635 199.831 164.627 199.355 164.728C198.899 164.825 198.509 165.007 198.186 165.274C197.864 165.541 197.637 165.873 197.505 166.269C197.372 166.659 197.356 167.089 197.455 167.558C197.554 168.022 197.744 168.408 198.025 168.716C198.305 169.019 198.647 169.226 199.05 169.339C199.454 169.452 199.884 169.46 200.34 169.363C200.816 169.262 201.203 169.083 201.502 168.827C201.806 168.564 202.011 168.237 202.118 167.846L203.141 167.629C203.015 168.239 202.719 168.755 202.253 169.175C201.785 169.59 201.195 169.873 200.481 170.025C199.874 170.154 199.294 170.146 198.74 170.001C198.191 169.849 197.724 169.577 197.34 169.186C196.956 168.794 196.703 168.314 196.582 167.744Z" fill="#B3B3B3"/>
<path d="M207.033 168.658C206.551 168.761 206.093 168.756 205.657 168.644C205.227 168.531 204.862 168.32 204.561 168.01C204.264 167.694 204.066 167.298 203.965 166.823C203.865 166.354 203.89 165.916 204.039 165.511C204.193 165.098 204.448 164.755 204.801 164.481C205.154 164.202 205.574 164.011 206.062 163.907C206.551 163.803 207.013 163.807 207.448 163.919C207.883 164.025 208.251 164.233 208.552 164.543C208.86 164.851 209.064 165.243 209.165 165.718C209.266 166.192 209.236 166.637 209.075 167.051C208.92 167.457 208.663 167.801 208.304 168.082C207.945 168.362 207.521 168.555 207.033 168.658ZM206.891 167.988C207.197 167.923 207.472 167.797 207.713 167.612C207.955 167.426 208.13 167.187 208.238 166.896C208.352 166.603 208.37 166.272 208.292 165.903C208.214 165.534 208.066 165.239 207.848 165.016C207.631 164.794 207.378 164.649 207.089 164.582C206.799 164.509 206.5 164.506 206.194 164.571C205.881 164.637 205.607 164.763 205.371 164.947C205.141 165.125 204.975 165.358 204.873 165.649C204.771 165.939 204.759 166.269 204.838 166.637C204.917 167.012 205.06 167.311 205.264 167.536C205.475 167.76 205.723 167.909 206.007 167.983C206.289 168.051 206.584 168.053 206.891 167.988Z" fill="#B3B3B3"/>
<path d="M215.969 161.792C216.37 161.707 216.743 161.707 217.088 161.791C217.431 161.87 217.725 162.038 217.97 162.296C218.214 162.553 218.382 162.894 218.472 163.319L219.047 166.026L218.203 166.205L217.65 163.607C217.553 163.149 217.35 162.827 217.043 162.642C216.74 162.449 216.373 162.398 215.941 162.49C215.497 162.585 215.171 162.788 214.963 163.101C214.753 163.408 214.7 163.802 214.802 164.283L215.34 166.814L214.495 166.994L213.943 164.395C213.845 163.937 213.643 163.615 213.335 163.43C213.033 163.237 212.665 163.187 212.234 163.278C211.789 163.373 211.463 163.576 211.255 163.889C211.046 164.197 210.992 164.59 211.094 165.071L211.632 167.602L210.778 167.784L209.802 163.191L210.656 163.009L210.797 163.671C210.914 163.395 211.1 163.163 211.355 162.975C211.615 162.785 211.918 162.653 212.262 162.58C212.694 162.489 213.094 162.494 213.462 162.597C213.831 162.699 214.132 162.901 214.366 163.202C214.441 162.847 214.625 162.545 214.919 162.296C215.213 162.047 215.563 161.879 215.969 161.792Z" fill="#B3B3B3"/>
<path d="M220.506 161.8C220.619 161.502 220.823 161.231 221.118 160.987C221.418 160.736 221.79 160.564 222.235 160.469C222.691 160.372 223.125 160.382 223.536 160.499C223.953 160.615 224.306 160.829 224.595 161.141C224.882 161.448 225.076 161.836 225.176 162.306C225.274 162.769 225.256 163.205 225.12 163.614C224.985 164.022 224.75 164.367 224.418 164.648C224.091 164.927 223.7 165.116 223.243 165.213C222.805 165.306 222.398 165.302 222.024 165.201C221.654 165.092 221.354 164.925 221.123 164.7L221.766 167.726L220.912 167.907L219.472 161.135L220.326 160.954L220.506 161.8ZM224.303 162.491C224.229 162.145 224.087 161.86 223.876 161.636C223.665 161.412 223.41 161.262 223.113 161.185C222.821 161.107 222.516 161.101 222.197 161.169C221.884 161.236 221.608 161.367 221.369 161.564C221.134 161.754 220.964 161.998 220.857 162.295C220.755 162.585 220.74 162.901 220.813 163.242C220.886 163.588 221.029 163.876 221.242 164.105C221.459 164.328 221.714 164.481 222.006 164.565C222.304 164.642 222.609 164.647 222.922 164.58C223.241 164.513 223.518 164.384 223.752 164.194C223.992 163.997 224.162 163.753 224.264 163.463C224.365 163.167 224.378 162.843 224.303 162.491Z" fill="#B3B3B3"/>
<path d="M225.981 162.134C225.881 161.665 225.9 161.232 226.038 160.835C226.175 160.432 226.407 160.093 226.735 159.819C227.069 159.544 227.464 159.358 227.921 159.261C228.371 159.165 228.781 159.168 229.149 159.271C229.518 159.374 229.811 159.539 230.03 159.767L229.852 158.929L230.715 158.746L231.691 163.338L230.828 163.522L230.646 162.667C230.534 162.971 230.328 163.248 230.028 163.499C229.733 163.743 229.364 163.912 228.92 164.006C228.463 164.103 228.028 164.091 227.616 163.968C227.205 163.845 226.854 163.625 226.564 163.307C226.274 162.989 226.079 162.598 225.981 162.134ZM230.338 161.217C230.264 160.871 230.122 160.586 229.911 160.362C229.7 160.138 229.445 159.988 229.148 159.911C228.855 159.827 228.55 159.819 228.23 159.887C227.911 159.955 227.635 160.084 227.4 160.274C227.166 160.463 226.998 160.704 226.896 160.994C226.794 161.284 226.78 161.602 226.854 161.949C226.929 162.301 227.072 162.592 227.284 162.821C227.495 163.045 227.747 163.198 228.04 163.282C228.331 163.361 228.636 163.366 228.955 163.298C229.275 163.23 229.551 163.101 229.786 162.911C230.025 162.714 230.196 162.471 230.297 162.18C230.398 161.885 230.412 161.564 230.338 161.217Z" fill="#B3B3B3"/>
<path d="M234.647 157.822C235.273 157.689 235.816 157.752 236.276 158.01C236.735 158.263 237.033 158.708 237.168 159.345L237.744 162.052L236.899 162.231L236.347 159.633C236.249 159.175 236.047 158.853 235.739 158.668C235.43 158.476 235.054 158.428 234.609 158.522C234.159 158.618 233.826 158.82 233.61 159.129C233.401 159.436 233.347 159.83 233.449 160.31L233.989 162.85L233.135 163.031L232.159 158.439L233.013 158.257L233.152 158.911C233.271 158.64 233.461 158.41 233.721 158.22C233.988 158.029 234.296 157.897 234.647 157.822Z" fill="#B3B3B3"/>
<path d="M238.445 156.323C238.283 156.357 238.134 156.336 238 156.26C237.866 156.183 237.784 156.072 237.753 155.927C237.722 155.782 237.752 155.647 237.843 155.522C237.935 155.398 238.062 155.318 238.224 155.284C238.381 155.25 238.523 155.273 238.651 155.351C238.785 155.427 238.867 155.538 238.898 155.684C238.929 155.829 238.899 155.964 238.807 156.088C238.722 156.211 238.602 156.29 238.445 156.323ZM239.017 156.981L239.993 161.574L239.139 161.755L238.163 157.163L239.017 156.981Z" fill="#B3B3B3"/>
<path d="M245.616 157.794C245.647 157.94 245.671 158.095 245.686 158.261L241.575 159.135C241.702 159.581 241.95 159.899 242.318 160.09C242.69 160.273 243.102 160.317 243.552 160.222C243.921 160.143 244.212 160.002 244.424 159.8C244.641 159.59 244.772 159.346 244.818 159.068L245.738 158.872C245.694 159.343 245.495 159.762 245.141 160.129C244.787 160.491 244.303 160.737 243.689 160.867C243.201 160.971 242.742 160.966 242.313 160.853C241.89 160.738 241.53 160.526 241.235 160.215C240.939 159.898 240.741 159.502 240.64 159.027C240.539 158.552 240.557 158.114 240.693 157.711C240.83 157.308 241.069 156.971 241.411 156.7C241.757 156.422 242.18 156.23 242.681 156.123C243.169 156.02 243.621 156.023 244.037 156.133C244.453 156.243 244.796 156.444 245.068 156.737C245.345 157.023 245.527 157.375 245.616 157.794ZM244.7 157.823C244.639 157.532 244.514 157.299 244.326 157.123C244.137 156.941 243.906 156.824 243.633 156.771C243.365 156.711 243.081 156.713 242.781 156.777C242.349 156.868 242.006 157.07 241.752 157.381C241.503 157.69 241.404 158.068 241.453 158.513L244.7 157.823Z" fill="#B3B3B3"/>
<path d="M249.106 159.715C248.712 159.799 248.346 159.816 248.008 159.765C247.669 159.708 247.387 159.593 247.16 159.42C246.932 159.24 246.779 159.013 246.701 158.738L247.583 158.55C247.657 158.774 247.816 158.936 248.059 159.036C248.309 159.134 248.609 159.147 248.96 159.072C249.285 159.003 249.528 158.884 249.689 158.716C249.849 158.547 249.908 158.365 249.867 158.17C249.824 157.969 249.693 157.842 249.472 157.789C249.25 157.731 248.92 157.699 248.48 157.694C248.08 157.685 247.748 157.662 247.485 157.625C247.227 157.581 246.991 157.488 246.778 157.346C246.57 157.198 246.434 156.975 246.371 156.679C246.322 156.444 246.354 156.213 246.469 155.984C246.584 155.755 246.773 155.554 247.037 155.381C247.3 155.203 247.616 155.074 247.986 154.996C248.555 154.875 249.042 154.905 249.447 155.088C249.852 155.271 250.115 155.583 250.235 156.024L249.381 156.206C249.311 155.97 249.16 155.8 248.929 155.697C248.704 155.593 248.426 155.577 248.095 155.647C247.788 155.712 247.556 155.823 247.4 155.979C247.243 156.135 247.185 156.308 247.226 156.498C247.258 156.648 247.338 156.763 247.465 156.841C247.598 156.912 247.752 156.961 247.928 156.988C248.109 157.008 248.354 157.023 248.664 157.033C249.052 157.044 249.371 157.069 249.622 157.109C249.871 157.144 250.096 157.231 250.295 157.369C250.501 157.507 250.637 157.714 250.702 157.992C250.756 158.244 250.726 158.487 250.612 158.721C250.498 158.955 250.31 159.162 250.047 159.34C249.789 159.512 249.476 159.637 249.106 159.715Z" fill="#B3B3B3"/>
</svg>
