<svg width="382" height="293" viewBox="0 0 382 293" fill="none" xmlns="http://www.w3.org/2000/svg">
<path d="M15 -0.000244141L356.121 -0.000244141L356.121 201.163H15.0002L15 -0.000244141Z" fill="#060606"/>
<path d="M176.369 79.1613L174.066 75.1256H178.597L180.9 79.1613H176.369Z" fill="white"/>
<path d="M185.443 95.6145L178.415 83.197H183.1L185.443 87.3586L187.786 83.197H192.395L185.443 95.6145Z" fill="white"/>
<path d="M189.91 79.1613L192.139 75.1256H196.745L194.442 79.1613H189.91Z" fill="white"/>
<path d="M152.697 103.807L152.697 112.293H150.765L150.765 103.807H152.697Z" fill="white"/>
<path d="M162.847 112.293H160.915L156.539 106.47L156.539 112.293H154.607L154.607 103.795H156.539L160.915 109.631L160.915 103.795H162.847L162.847 112.293Z" fill="white"/>
<path d="M173.411 103.807L169.878 112.293H167.531L163.998 103.807H166.068L168.718 110.555L171.355 103.807H173.411Z" fill="white"/>
<path d="M176.502 103.807L176.502 112.293H174.57L174.57 103.807H176.502Z" fill="white"/>
<path d="M177.942 108.038C177.942 107.203 178.154 106.458 178.577 105.801C179.01 105.137 179.594 104.622 180.33 104.257C181.075 103.884 181.908 103.698 182.828 103.698C183.905 103.698 184.848 103.941 185.658 104.427C186.468 104.914 187.034 105.586 187.356 106.446H185.133C184.913 106.04 184.6 105.736 184.195 105.534C183.799 105.331 183.339 105.23 182.815 105.23C182.253 105.23 181.752 105.347 181.31 105.582C180.878 105.809 180.537 106.134 180.289 106.555C180.049 106.976 179.93 107.471 179.93 108.038C179.93 108.597 180.049 109.092 180.289 109.521C180.537 109.943 180.878 110.271 181.31 110.506C181.752 110.733 182.253 110.846 182.815 110.846C183.339 110.846 183.799 110.745 184.195 110.542C184.6 110.332 184.913 110.024 185.133 109.619H187.356C187.034 110.486 186.468 111.162 185.658 111.649C184.857 112.127 183.914 112.366 182.828 112.366C181.908 112.366 181.075 112.184 180.33 111.819C179.594 111.446 179.01 110.931 178.577 110.275C178.154 109.619 177.942 108.873 177.942 108.038Z" fill="white"/>
<path d="M190.939 103.807L190.939 112.293H189.006L189.006 103.807H190.939Z" fill="white"/>
<path d="M197.32 112.378C196.418 112.378 195.59 112.192 194.836 111.819C194.081 111.446 193.483 110.931 193.041 110.275C192.599 109.61 192.379 108.861 192.379 108.026C192.379 107.199 192.599 106.458 193.041 105.801C193.483 105.137 194.081 104.618 194.836 104.245C195.59 103.872 196.418 103.686 197.32 103.686C198.231 103.686 199.059 103.872 199.805 104.245C200.559 104.618 201.153 105.137 201.585 105.801C202.027 106.458 202.248 107.199 202.248 108.026C202.248 108.861 202.027 109.61 201.585 110.275C201.153 110.931 200.559 111.446 199.805 111.819C199.05 112.192 198.222 112.378 197.32 112.378ZM197.32 110.859C197.9 110.859 198.411 110.745 198.852 110.518C199.294 110.283 199.639 109.951 199.887 109.521C200.136 109.092 200.26 108.593 200.26 108.026C200.26 107.459 200.136 106.964 199.887 106.543C199.639 106.113 199.294 105.785 198.852 105.558C198.411 105.331 197.9 105.218 197.32 105.218C196.74 105.218 196.225 105.331 195.774 105.558C195.332 105.785 194.987 106.113 194.739 106.543C194.49 106.964 194.366 107.459 194.366 108.026C194.366 108.593 194.49 109.092 194.739 109.521C194.987 109.951 195.332 110.283 195.774 110.518C196.225 110.745 196.74 110.859 197.32 110.859Z" fill="white"/>
<path d="M205.59 103.807L205.59 109.059C205.59 109.635 205.76 110.076 206.101 110.384C206.441 110.684 206.92 110.834 207.536 110.834C208.162 110.834 208.645 110.684 208.986 110.384C209.326 110.076 209.496 109.635 209.496 109.059L209.496 103.807H211.443L211.443 109.047C211.443 109.768 211.263 110.38 210.904 110.883C210.555 111.377 210.081 111.75 209.483 112.001C208.894 112.253 208.236 112.378 207.509 112.378C206.791 112.378 206.138 112.253 205.549 112.001C204.969 111.75 204.509 111.377 204.169 110.883C203.828 110.38 203.658 109.768 203.658 109.047L203.658 103.807H205.59Z" fill="white"/>
<path d="M216.636 112.378C215.965 112.378 215.357 112.277 214.814 112.074C214.281 111.872 213.857 111.58 213.544 111.199C213.232 110.818 213.07 110.368 213.061 109.85H215.132C215.159 110.198 215.297 110.474 215.546 110.676C215.803 110.879 216.153 110.98 216.595 110.98C217.046 110.98 217.4 110.887 217.658 110.7C217.915 110.506 218.044 110.255 218.044 109.947C218.044 109.696 217.957 109.489 217.782 109.327C217.607 109.165 217.386 109.039 217.119 108.95C216.862 108.853 216.503 108.747 216.043 108.634C215.417 108.472 214.906 108.314 214.511 108.16C214.124 107.998 213.788 107.759 213.503 107.442C213.227 107.118 213.089 106.689 213.089 106.154C213.089 105.651 213.231 105.214 213.517 104.841C213.802 104.468 214.202 104.184 214.718 103.99C215.233 103.787 215.822 103.686 216.484 103.686C217.478 103.686 218.283 103.901 218.9 104.33C219.526 104.752 219.871 105.343 219.935 106.105H217.809C217.791 105.813 217.648 105.574 217.382 105.388C217.124 105.193 216.779 105.096 216.346 105.096C215.969 105.096 215.665 105.181 215.435 105.351C215.215 105.522 215.104 105.769 215.104 106.093C215.104 106.32 215.187 106.51 215.353 106.664C215.527 106.81 215.739 106.932 215.987 107.029C216.245 107.118 216.604 107.224 217.064 107.345C217.69 107.507 218.201 107.669 218.596 107.831C218.992 107.994 219.332 108.237 219.618 108.561C219.903 108.885 220.046 109.311 220.046 109.837C220.046 110.291 219.912 110.713 219.645 111.102C219.378 111.491 218.987 111.803 218.472 112.038C217.957 112.265 217.345 112.378 216.636 112.378Z" fill="white"/>
<path d="M143.179 124.514C143.002 124.181 142.746 123.925 142.409 123.745C142.073 123.559 141.682 123.466 141.236 123.466C140.79 123.466 140.386 123.559 140.026 123.745C139.671 123.925 139.39 124.187 139.182 124.53C138.981 124.869 138.88 125.262 138.88 125.709C138.88 126.157 138.981 126.549 139.182 126.888C139.39 127.226 139.671 127.488 140.026 127.674C140.386 127.854 140.79 127.944 141.236 127.944C141.859 127.944 142.373 127.777 142.776 127.444C143.179 127.112 143.415 126.661 143.482 126.094H140.933L140.933 125.488H144.371L144.371 126.061C144.322 126.53 144.157 126.961 143.876 127.354C143.595 127.742 143.225 128.05 142.767 128.279C142.309 128.503 141.798 128.615 141.236 128.615C140.643 128.615 140.102 128.492 139.613 128.247C139.124 127.996 138.736 127.649 138.449 127.207C138.168 126.765 138.027 126.266 138.027 125.709C138.027 125.152 138.168 124.653 138.449 124.211C138.736 123.764 139.124 123.417 139.613 123.172C140.102 122.921 140.643 122.795 141.236 122.795C141.914 122.795 142.513 122.945 143.033 123.245C143.558 123.545 143.94 123.968 144.179 124.514H143.179Z" fill="#B3B3B3"/>
<path d="M146.308 124.809C146.455 124.552 146.663 124.353 146.932 124.211C147.207 124.069 147.54 123.998 147.931 123.998L147.931 124.768H147.711C146.776 124.768 146.308 125.221 146.308 126.127L146.308 128.566H145.474L145.474 124.08H146.308L146.308 124.809Z" fill="#B3B3B3"/>
<path d="M151.085 128.639C150.615 128.639 150.187 128.544 149.802 128.353C149.423 128.162 149.123 127.892 148.903 127.543C148.689 127.188 148.582 126.779 148.582 126.315C148.582 125.856 148.692 125.453 148.912 125.103C149.139 124.749 149.444 124.479 149.829 124.293C150.214 124.102 150.645 124.007 151.122 124.007C151.598 124.007 152.029 124.102 152.414 124.293C152.799 124.479 153.102 124.746 153.322 125.095C153.548 125.444 153.661 125.851 153.661 126.315C153.661 126.779 153.545 127.188 153.313 127.543C153.087 127.892 152.778 128.162 152.387 128.353C151.996 128.544 151.562 128.639 151.085 128.639ZM151.085 127.985C151.385 127.985 151.666 127.922 151.929 127.796C152.191 127.671 152.402 127.483 152.561 127.232C152.726 126.981 152.809 126.675 152.809 126.315C152.809 125.955 152.729 125.649 152.57 125.398C152.411 125.147 152.204 124.961 151.947 124.841C151.69 124.716 151.412 124.653 151.113 124.653C150.807 124.653 150.526 124.716 150.269 124.841C150.019 124.961 149.817 125.147 149.664 125.398C149.511 125.649 149.435 125.955 149.435 126.315C149.435 126.68 149.508 126.989 149.655 127.24C149.808 127.491 150.009 127.679 150.26 127.805C150.511 127.925 150.786 127.985 151.085 127.985Z" fill="#B3B3B3"/>
<path d="M159.213 124.08L159.213 128.566H158.379L158.379 127.903C158.22 128.132 157.997 128.312 157.71 128.443C157.429 128.569 157.117 128.631 156.775 128.631C156.384 128.631 156.032 128.56 155.721 128.418C155.409 128.271 155.161 128.053 154.978 127.764C154.801 127.474 154.712 127.122 154.712 126.708L154.712 124.08H155.537L155.537 126.609C155.537 127.051 155.663 127.393 155.913 127.633C156.164 127.867 156.506 127.985 156.94 127.985C157.386 127.985 157.737 127.862 157.994 127.616C158.251 127.371 158.379 127.013 158.379 126.544L158.379 124.08H159.213Z" fill="#B3B3B3"/>
<path d="M161.456 124.907C161.621 124.65 161.866 124.438 162.19 124.268C162.52 124.094 162.902 124.007 163.335 124.007C163.782 124.007 164.185 124.102 164.546 124.293C164.912 124.484 165.199 124.754 165.407 125.103C165.615 125.447 165.719 125.848 165.719 126.307C165.719 126.76 165.615 127.163 165.407 127.518C165.199 127.873 164.912 128.148 164.546 128.345C164.185 128.541 163.782 128.639 163.335 128.639C162.908 128.639 162.529 128.555 162.199 128.386C161.875 128.211 161.627 127.996 161.456 127.739L161.456 130.694H160.622L160.622 124.08H161.456L161.456 124.907ZM164.866 126.307C164.866 125.968 164.79 125.674 164.637 125.423C164.484 125.172 164.277 124.981 164.014 124.85C163.757 124.719 163.473 124.653 163.161 124.653C162.856 124.653 162.572 124.721 162.309 124.858C162.052 124.989 161.844 125.183 161.685 125.439C161.533 125.69 161.456 125.982 161.456 126.315C161.456 126.653 161.533 126.951 161.685 127.207C161.844 127.458 162.052 127.652 162.309 127.788C162.572 127.919 162.856 127.985 163.161 127.985C163.473 127.985 163.757 127.919 164.014 127.788C164.277 127.652 164.484 127.458 164.637 127.207C164.79 126.951 164.866 126.65 164.866 126.307Z" fill="#B3B3B3"/>
<path d="M171.452 128.639C170.982 128.639 170.554 128.544 170.169 128.353C169.79 128.162 169.49 127.892 169.27 127.543C169.056 127.188 168.949 126.779 168.949 126.315C168.949 125.856 169.059 125.453 169.279 125.103C169.506 124.749 169.811 124.479 170.196 124.293C170.581 124.102 171.012 124.007 171.489 124.007C171.965 124.007 172.396 124.102 172.781 124.293C173.166 124.479 173.469 124.746 173.689 125.095C173.915 125.444 174.028 125.851 174.028 126.315C174.028 126.779 173.912 127.188 173.68 127.543C173.454 127.892 173.145 128.162 172.754 128.353C172.363 128.544 171.929 128.639 171.452 128.639ZM171.452 127.985C171.752 127.985 172.033 127.922 172.295 127.796C172.558 127.671 172.769 127.483 172.928 127.232C173.093 126.981 173.176 126.675 173.176 126.315C173.176 125.955 173.096 125.649 172.937 125.398C172.778 125.147 172.571 124.961 172.314 124.841C172.057 124.716 171.779 124.653 171.48 124.653C171.174 124.653 170.893 124.716 170.636 124.841C170.386 124.961 170.184 125.147 170.031 125.398C169.878 125.649 169.802 125.955 169.802 126.315C169.802 126.68 169.875 126.989 170.022 127.24C170.175 127.491 170.376 127.679 170.627 127.805C170.878 127.925 171.153 127.985 171.452 127.985Z" fill="#B3B3B3"/>
<path d="M177.169 124.694H176.115L176.115 128.566H175.281L175.281 124.694H174.63L174.63 124.08H175.281L175.281 123.761C175.281 123.259 175.424 122.893 175.712 122.664C176.005 122.429 176.473 122.312 177.114 122.312L177.114 122.934C176.748 122.934 176.488 123 176.335 123.131C176.188 123.256 176.115 123.466 176.115 123.761L176.115 124.08H177.169L177.169 124.694Z" fill="#B3B3B3"/>
<path d="M180.274 125.709C180.274 125.152 180.415 124.653 180.696 124.211C180.977 123.764 181.359 123.414 181.842 123.163C182.331 122.912 182.872 122.787 183.465 122.787C184.161 122.787 184.769 122.937 185.289 123.237C185.808 123.537 186.187 123.963 186.426 124.514H185.426C185.249 124.17 184.992 123.906 184.656 123.72C184.326 123.535 183.929 123.442 183.465 123.442C183.018 123.442 182.618 123.535 182.264 123.72C181.909 123.906 181.631 124.17 181.429 124.514C181.228 124.852 181.127 125.251 181.127 125.709C181.127 126.162 181.228 126.56 181.429 126.904C181.631 127.242 181.909 127.504 182.264 127.69C182.618 127.875 183.018 127.968 183.465 127.968C183.929 127.968 184.326 127.878 184.656 127.698C184.992 127.513 185.249 127.248 185.426 126.904H186.426C186.187 127.45 185.808 127.873 185.289 128.173C184.769 128.468 184.161 128.615 183.465 128.615C182.872 128.615 182.331 128.492 181.842 128.247C181.359 127.996 180.977 127.649 180.696 127.207C180.415 126.765 180.274 126.266 180.274 125.709Z" fill="#B3B3B3"/>
<path d="M189.858 128.639C189.388 128.639 188.96 128.544 188.575 128.353C188.196 128.162 187.897 127.892 187.677 127.543C187.463 127.188 187.356 126.779 187.356 126.315C187.356 125.856 187.466 125.453 187.686 125.103C187.912 124.749 188.218 124.479 188.603 124.293C188.988 124.102 189.418 124.007 189.895 124.007C190.372 124.007 190.803 124.102 191.188 124.293C191.573 124.479 191.875 124.746 192.095 125.095C192.321 125.444 192.434 125.851 192.434 126.315C192.434 126.779 192.318 127.188 192.086 127.543C191.86 127.892 191.551 128.162 191.16 128.353C190.769 128.544 190.335 128.639 189.858 128.639ZM189.858 127.985C190.158 127.985 190.439 127.922 190.702 127.796C190.965 127.671 191.176 127.483 191.334 127.232C191.499 126.981 191.582 126.675 191.582 126.315C191.582 125.955 191.502 125.649 191.344 125.398C191.185 125.147 190.977 124.961 190.72 124.841C190.464 124.716 190.185 124.653 189.886 124.653C189.58 124.653 189.299 124.716 189.043 124.841C188.792 124.961 188.59 125.147 188.438 125.398C188.285 125.649 188.208 125.955 188.208 126.315C188.208 126.68 188.282 126.989 188.428 127.24C188.581 127.491 188.783 127.679 189.033 127.805C189.284 127.925 189.559 127.985 189.858 127.985Z" fill="#B3B3B3"/>
<path d="M199.573 123.998C199.964 123.998 200.312 124.072 200.618 124.219C200.923 124.361 201.165 124.577 201.342 124.866C201.519 125.155 201.608 125.507 201.608 125.922L201.608 128.566H200.783L200.783 126.028C200.783 125.581 200.657 125.24 200.407 125.005C200.162 124.765 199.829 124.645 199.408 124.645C198.974 124.645 198.628 124.771 198.372 125.022C198.115 125.267 197.987 125.625 197.987 126.094L197.987 128.566H197.162L197.162 126.028C197.162 125.581 197.036 125.24 196.786 125.005C196.541 124.765 196.208 124.645 195.787 124.645C195.353 124.645 195.007 124.771 194.751 125.022C194.494 125.267 194.366 125.625 194.366 126.094L194.366 128.566H193.531L193.531 124.08H194.366L194.366 124.727C194.531 124.492 194.751 124.312 195.026 124.187C195.307 124.061 195.615 123.998 195.952 123.998C196.373 123.998 196.746 124.083 197.07 124.252C197.394 124.421 197.635 124.67 197.794 124.997C197.935 124.68 198.167 124.435 198.491 124.26C198.815 124.086 199.175 123.998 199.573 123.998Z" fill="#B3B3B3"/>
<path d="M203.81 124.907C203.976 124.65 204.22 124.438 204.544 124.268C204.874 124.094 205.256 124.007 205.69 124.007C206.136 124.007 206.539 124.102 206.9 124.293C207.267 124.484 207.554 124.754 207.762 125.103C207.969 125.447 208.073 125.848 208.073 126.307C208.073 126.76 207.969 127.163 207.762 127.518C207.554 127.873 207.267 128.148 206.9 128.345C206.539 128.541 206.136 128.639 205.69 128.639C205.262 128.639 204.883 128.555 204.553 128.386C204.229 128.211 203.982 127.996 203.81 127.739L203.81 130.694H202.976L202.976 124.08H203.81L203.81 124.907ZM207.221 126.307C207.221 125.968 207.144 125.674 206.992 125.423C206.839 125.172 206.631 124.981 206.368 124.85C206.112 124.719 205.827 124.653 205.516 124.653C205.21 124.653 204.926 124.721 204.663 124.858C204.406 124.989 204.199 125.183 204.04 125.439C203.887 125.69 203.81 125.982 203.81 126.315C203.81 126.653 203.887 126.951 204.04 127.207C204.199 127.458 204.406 127.652 204.663 127.788C204.926 127.919 205.21 127.985 205.516 127.985C205.827 127.985 206.112 127.919 206.368 127.788C206.631 127.652 206.839 127.458 206.992 127.207C207.144 126.951 207.221 126.65 207.221 126.307Z" fill="#B3B3B3"/>
<path d="M208.86 126.307C208.86 125.848 208.964 125.447 209.171 125.103C209.379 124.754 209.663 124.484 210.024 124.293C210.391 124.102 210.797 124.007 211.243 124.007C211.683 124.007 212.065 124.091 212.389 124.26C212.713 124.429 212.954 124.642 213.113 124.899L213.113 124.08H213.957L213.957 128.566H213.113L213.113 127.731C212.948 127.993 212.701 128.211 212.371 128.386C212.047 128.555 211.668 128.639 211.234 128.639C210.788 128.639 210.385 128.541 210.024 128.345C209.663 128.148 209.379 127.873 209.171 127.518C208.964 127.163 208.86 126.76 208.86 126.307ZM213.113 126.315C213.113 125.976 213.037 125.682 212.884 125.431C212.731 125.18 212.524 124.989 212.261 124.858C212.004 124.721 211.72 124.653 211.408 124.653C211.097 124.653 210.812 124.719 210.556 124.85C210.299 124.981 210.094 125.172 209.941 125.423C209.789 125.674 209.712 125.968 209.712 126.307C209.712 126.65 209.789 126.951 209.941 127.207C210.094 127.458 210.299 127.652 210.556 127.788C210.812 127.919 211.097 127.985 211.408 127.985C211.72 127.985 212.004 127.919 212.261 127.788C212.524 127.652 212.731 127.458 212.884 127.207C213.037 126.951 213.113 126.653 213.113 126.315Z" fill="#B3B3B3"/>
<path d="M217.814 123.998C218.425 123.998 218.92 124.165 219.299 124.498C219.678 124.825 219.868 125.3 219.868 125.922L219.868 128.566H219.043L219.043 126.028C219.043 125.581 218.917 125.24 218.667 125.005C218.416 124.765 218.074 124.645 217.64 124.645C217.2 124.645 216.849 124.768 216.586 125.013C216.329 125.259 216.201 125.616 216.201 126.086L216.201 128.566H215.367L215.367 124.08H216.201L216.201 124.719C216.366 124.489 216.589 124.312 216.87 124.187C217.157 124.061 217.472 123.998 217.814 123.998Z" fill="#B3B3B3"/>
<path d="M221.661 123.352C221.502 123.352 221.368 123.303 221.258 123.204C221.148 123.106 221.093 122.986 221.093 122.844C221.093 122.702 221.148 122.582 221.258 122.484C221.368 122.386 221.502 122.337 221.661 122.337C221.814 122.337 221.942 122.386 222.046 122.484C222.156 122.582 222.211 122.702 222.211 122.844C222.211 122.986 222.156 123.106 222.046 123.204C221.942 123.303 221.814 123.352 221.661 123.352ZM222.065 124.08L222.065 128.566H221.23L221.23 124.08H222.065Z" fill="#B3B3B3"/>
<path d="M228.07 126.151C228.07 126.293 228.061 126.443 228.043 126.601H224.027C224.058 127.043 224.226 127.39 224.532 127.641C224.843 127.886 225.219 128.009 225.659 128.009C226.02 128.009 226.319 127.936 226.558 127.788C226.802 127.635 226.973 127.433 227.071 127.182H227.969C227.835 127.614 227.566 127.966 227.163 128.238C226.759 128.506 226.258 128.639 225.659 128.639C225.182 128.639 224.755 128.544 224.376 128.353C224.003 128.162 223.71 127.892 223.496 127.543C223.282 127.188 223.175 126.779 223.175 126.315C223.175 125.851 223.279 125.444 223.486 125.095C223.694 124.746 223.985 124.479 224.357 124.293C224.736 124.102 225.17 124.007 225.659 124.007C226.136 124.007 226.558 124.099 226.924 124.285C227.291 124.47 227.572 124.727 227.768 125.054C227.969 125.376 228.07 125.742 228.07 126.151ZM227.208 125.996C227.208 125.712 227.138 125.469 226.998 125.267C226.857 125.06 226.665 124.904 226.42 124.801C226.182 124.691 225.916 124.637 225.622 124.637C225.201 124.637 224.84 124.757 224.541 124.997C224.247 125.237 224.079 125.57 224.037 125.996H227.208Z" fill="#B3B3B3"/>
<path d="M230.95 128.639C230.565 128.639 230.219 128.582 229.914 128.468C229.608 128.348 229.367 128.184 229.19 127.976C229.012 127.764 228.915 127.521 228.896 127.248H229.758C229.782 127.472 229.899 127.654 230.106 127.796C230.32 127.938 230.598 128.009 230.941 128.009C231.258 128.009 231.509 127.946 231.692 127.821C231.876 127.695 231.967 127.537 231.967 127.346C231.967 127.15 231.87 127.005 231.674 126.912C231.478 126.814 231.176 126.719 230.766 126.626C230.394 126.539 230.088 126.451 229.85 126.364C229.617 126.271 229.416 126.137 229.245 125.963C229.08 125.783 228.997 125.548 228.997 125.259C228.997 125.03 229.074 124.82 229.226 124.629C229.379 124.438 229.596 124.288 229.877 124.178C230.158 124.064 230.479 124.007 230.84 124.007C231.396 124.007 231.845 124.132 232.187 124.383C232.53 124.634 232.713 124.978 232.737 125.414H231.903C231.885 125.18 231.778 124.992 231.582 124.85C231.393 124.708 231.136 124.637 230.812 124.637C230.513 124.637 230.274 124.694 230.097 124.809C229.92 124.923 229.831 125.073 229.831 125.259C229.831 125.406 229.883 125.529 229.987 125.627C230.097 125.72 230.232 125.796 230.391 125.856C230.556 125.911 230.782 125.974 231.069 126.045C231.43 126.132 231.723 126.219 231.949 126.307C232.175 126.388 232.368 126.514 232.527 126.683C232.692 126.852 232.777 127.073 232.783 127.346C232.783 127.592 232.707 127.813 232.554 128.009C232.401 128.206 232.184 128.361 231.903 128.476C231.628 128.585 231.31 128.639 230.95 128.639Z" fill="#B3B3B3"/>
<g filter="url(#filter0_f_202_2487)">
<ellipse cx="190.793" cy="257.647" rx="164.793" ry="9.55318" fill="url(#paint0_linear_202_2487)" fill-opacity="0.9"/>
</g>
<defs>
<filter id="filter0_f_202_2487" x="0.206459" y="222.3" width="381.173" height="70.6935" filterUnits="userSpaceOnUse" color-interpolation-filters="sRGB">
<feFlood flood-opacity="0" result="BackgroundImageFix"/>
<feBlend mode="normal" in="SourceGraphic" in2="BackgroundImageFix" result="shape"/>
<feGaussianBlur stdDeviation="12.8968" result="effect1_foregroundBlur_202_2487"/>
</filter>
<linearGradient id="paint0_linear_202_2487" x1="355.585" y1="257.647" x2="26" y2="257.647" gradientUnits="userSpaceOnUse">
<stop stop-opacity="0"/>
<stop offset="0.6875" stop-color="#0A0A0A"/>
</linearGradient>
</defs>
</svg>
