<svg width="341" height="284" viewBox="0 0 341 284" fill="none" xmlns="http://www.w3.org/2000/svg">
<g clip-path="url(#clip0_202_2487)">
<path d="M0 -0.000244141L341.121 -0.000244141L341.121 201.163H0.00022108L0 -0.000244141Z" fill="#060606"/>
<path d="M161.369 79.1613L159.066 75.1256H163.597L165.9 79.1613H161.369Z" fill="white"/>
<path d="M170.443 95.6145L163.415 83.197H168.1L170.443 87.3586L172.786 83.197H177.395L170.443 95.6145Z" fill="white"/>
<path d="M174.91 79.1613L177.139 75.1256H181.745L179.442 79.1613H174.91Z" fill="white"/>
<path d="M137.697 103.807L137.697 112.293H135.765L135.765 103.807H137.697Z" fill="white"/>
<path d="M147.847 112.293H145.915L141.539 106.47L141.539 112.293H139.607L139.607 103.795H141.539L145.915 109.631L145.915 103.795H147.847L147.847 112.293Z" fill="white"/>
<path d="M158.411 103.807L154.878 112.293H152.531L148.998 103.807H151.068L153.718 110.555L156.355 103.807H158.411Z" fill="white"/>
<path d="M161.502 103.807L161.502 112.293H159.57L159.57 103.807H161.502Z" fill="white"/>
<path d="M162.942 108.038C162.942 107.203 163.154 106.458 163.577 105.801C164.01 105.137 164.594 104.622 165.33 104.257C166.075 103.884 166.908 103.698 167.828 103.698C168.905 103.698 169.848 103.941 170.658 104.427C171.468 104.914 172.034 105.586 172.356 106.446H170.133C169.913 106.04 169.6 105.736 169.195 105.534C168.799 105.331 168.339 105.23 167.815 105.23C167.253 105.23 166.752 105.347 166.31 105.582C165.878 105.809 165.537 106.134 165.289 106.555C165.049 106.976 164.93 107.471 164.93 108.038C164.93 108.597 165.049 109.092 165.289 109.521C165.537 109.943 165.878 110.271 166.31 110.506C166.752 110.733 167.253 110.846 167.815 110.846C168.339 110.846 168.799 110.745 169.195 110.542C169.6 110.332 169.913 110.024 170.133 109.619H172.356C172.034 110.486 171.468 111.162 170.658 111.649C169.857 112.127 168.914 112.366 167.828 112.366C166.908 112.366 166.075 112.184 165.33 111.819C164.594 111.446 164.01 110.931 163.577 110.275C163.154 109.619 162.942 108.873 162.942 108.038Z" fill="white"/>
<path d="M175.939 103.807L175.939 112.293H174.006L174.006 103.807H175.939Z" fill="white"/>
<path d="M182.32 112.378C181.418 112.378 180.59 112.192 179.836 111.819C179.081 111.446 178.483 110.931 178.041 110.275C177.599 109.61 177.379 108.861 177.379 108.026C177.379 107.199 177.599 106.458 178.041 105.801C178.483 105.137 179.081 104.618 179.836 104.245C180.59 103.872 181.418 103.686 182.32 103.686C183.231 103.686 184.059 103.872 184.805 104.245C185.559 104.618 186.153 105.137 186.585 105.801C187.027 106.458 187.248 107.199 187.248 108.026C187.248 108.861 187.027 109.61 186.585 110.275C186.153 110.931 185.559 111.446 184.805 111.819C184.05 112.192 183.222 112.378 182.32 112.378ZM182.32 110.859C182.9 110.859 183.411 110.745 183.852 110.518C184.294 110.283 184.639 109.951 184.887 109.521C185.136 109.092 185.26 108.593 185.26 108.026C185.26 107.459 185.136 106.964 184.887 106.543C184.639 106.113 184.294 105.785 183.852 105.558C183.411 105.331 182.9 105.218 182.32 105.218C181.74 105.218 181.225 105.331 180.774 105.558C180.332 105.785 179.987 106.113 179.739 106.543C179.49 106.964 179.366 107.459 179.366 108.026C179.366 108.593 179.49 109.092 179.739 109.521C179.987 109.951 180.332 110.283 180.774 110.518C181.225 110.745 181.74 110.859 182.32 110.859Z" fill="white"/>
<path d="M190.59 103.807L190.59 109.059C190.59 109.635 190.76 110.076 191.101 110.384C191.441 110.684 191.92 110.834 192.536 110.834C193.162 110.834 193.645 110.684 193.986 110.384C194.326 110.076 194.496 109.635 194.496 109.059L194.496 103.807H196.443L196.443 109.047C196.443 109.768 196.263 110.38 195.904 110.883C195.555 111.377 195.081 111.75 194.483 112.001C193.894 112.253 193.236 112.378 192.509 112.378C191.791 112.378 191.138 112.253 190.549 112.001C189.969 111.75 189.509 111.377 189.169 110.883C188.828 110.38 188.658 109.768 188.658 109.047L188.658 103.807H190.59Z" fill="white"/>
<path d="M201.636 112.378C200.965 112.378 200.357 112.277 199.814 112.074C199.281 111.872 198.857 111.58 198.544 111.199C198.232 110.818 198.07 110.368 198.061 109.85H200.132C200.159 110.198 200.297 110.474 200.546 110.676C200.803 110.879 201.153 110.98 201.595 110.98C202.046 110.98 202.4 110.887 202.658 110.7C202.915 110.506 203.044 110.255 203.044 109.947C203.044 109.696 202.957 109.489 202.782 109.327C202.607 109.165 202.386 109.039 202.119 108.95C201.862 108.853 201.503 108.747 201.043 108.634C200.417 108.472 199.906 108.314 199.511 108.16C199.124 107.998 198.788 107.759 198.503 107.442C198.227 107.118 198.089 106.689 198.089 106.154C198.089 105.651 198.231 105.214 198.517 104.841C198.802 104.468 199.202 104.184 199.718 103.99C200.233 103.787 200.822 103.686 201.484 103.686C202.478 103.686 203.283 103.901 203.9 104.33C204.526 104.752 204.871 105.343 204.935 106.105H202.809C202.791 105.813 202.648 105.574 202.382 105.388C202.124 105.193 201.779 105.096 201.346 105.096C200.969 105.096 200.665 105.181 200.435 105.351C200.215 105.522 200.104 105.769 200.104 106.093C200.104 106.32 200.187 106.51 200.353 106.664C200.527 106.81 200.739 106.932 200.987 107.029C201.245 107.118 201.604 107.224 202.064 107.345C202.69 107.507 203.201 107.669 203.596 107.831C203.992 107.994 204.332 108.237 204.618 108.561C204.903 108.885 205.046 109.311 205.046 109.837C205.046 110.291 204.912 110.713 204.645 111.102C204.378 111.491 203.987 111.803 203.472 112.038C202.957 112.265 202.345 112.378 201.636 112.378Z" fill="white"/>
<path d="M128.179 124.514C128.002 124.181 127.746 123.925 127.409 123.745C127.073 123.559 126.682 123.466 126.236 123.466C125.79 123.466 125.386 123.559 125.026 123.745C124.671 123.925 124.39 124.187 124.182 124.53C123.981 124.869 123.88 125.262 123.88 125.709C123.88 126.157 123.981 126.549 124.182 126.888C124.39 127.226 124.671 127.488 125.026 127.674C125.386 127.854 125.79 127.944 126.236 127.944C126.859 127.944 127.373 127.777 127.776 127.444C128.179 127.112 128.415 126.661 128.482 126.094H125.933L125.933 125.488H129.371L129.371 126.061C129.322 126.53 129.157 126.961 128.876 127.354C128.595 127.742 128.225 128.05 127.767 128.279C127.309 128.503 126.798 128.615 126.236 128.615C125.643 128.615 125.102 128.492 124.613 128.247C124.124 127.996 123.736 127.649 123.449 127.207C123.168 126.765 123.027 126.266 123.027 125.709C123.027 125.152 123.168 124.653 123.449 124.211C123.736 123.764 124.124 123.417 124.613 123.172C125.102 122.921 125.643 122.795 126.236 122.795C126.914 122.795 127.513 122.945 128.033 123.245C128.558 123.545 128.94 123.968 129.179 124.514H128.179Z" fill="#B3B3B3"/>
<path d="M131.308 124.809C131.455 124.552 131.663 124.353 131.932 124.211C132.207 124.069 132.54 123.998 132.931 123.998L132.931 124.768H132.711C131.776 124.768 131.308 125.221 131.308 126.127L131.308 128.566H130.474L130.474 124.08H131.308L131.308 124.809Z" fill="#B3B3B3"/>
<path d="M136.085 128.639C135.615 128.639 135.187 128.544 134.802 128.353C134.423 128.162 134.123 127.892 133.903 127.543C133.689 127.188 133.582 126.779 133.582 126.315C133.582 125.856 133.692 125.453 133.912 125.103C134.139 124.749 134.444 124.479 134.829 124.293C135.214 124.102 135.645 124.007 136.122 124.007C136.598 124.007 137.029 124.102 137.414 124.293C137.799 124.479 138.102 124.746 138.322 125.095C138.548 125.444 138.661 125.851 138.661 126.315C138.661 126.779 138.545 127.188 138.313 127.543C138.087 127.892 137.778 128.162 137.387 128.353C136.996 128.544 136.562 128.639 136.085 128.639ZM136.085 127.985C136.385 127.985 136.666 127.922 136.929 127.796C137.191 127.671 137.402 127.483 137.561 127.232C137.726 126.981 137.809 126.675 137.809 126.315C137.809 125.955 137.729 125.649 137.57 125.398C137.411 125.147 137.204 124.961 136.947 124.841C136.69 124.716 136.412 124.653 136.113 124.653C135.807 124.653 135.526 124.716 135.269 124.841C135.019 124.961 134.817 125.147 134.664 125.398C134.511 125.649 134.435 125.955 134.435 126.315C134.435 126.68 134.508 126.989 134.655 127.24C134.808 127.491 135.009 127.679 135.26 127.805C135.511 127.925 135.786 127.985 136.085 127.985Z" fill="#B3B3B3"/>
<path d="M144.213 124.08L144.213 128.566H143.379L143.379 127.903C143.22 128.132 142.997 128.312 142.71 128.443C142.429 128.569 142.117 128.631 141.775 128.631C141.384 128.631 141.032 128.56 140.721 128.418C140.409 128.271 140.161 128.053 139.978 127.764C139.801 127.474 139.712 127.122 139.712 126.708L139.712 124.08H140.537L140.537 126.609C140.537 127.051 140.663 127.393 140.913 127.633C141.164 127.867 141.506 127.985 141.94 127.985C142.386 127.985 142.737 127.862 142.994 127.616C143.251 127.371 143.379 127.013 143.379 126.544L143.379 124.08H144.213Z" fill="#B3B3B3"/>
<path d="M146.456 124.907C146.621 124.65 146.866 124.438 147.19 124.268C147.52 124.094 147.902 124.007 148.335 124.007C148.782 124.007 149.185 124.102 149.546 124.293C149.912 124.484 150.199 124.754 150.407 125.103C150.615 125.447 150.719 125.848 150.719 126.307C150.719 126.76 150.615 127.163 150.407 127.518C150.199 127.873 149.912 128.148 149.546 128.345C149.185 128.541 148.782 128.639 148.335 128.639C147.908 128.639 147.529 128.555 147.199 128.386C146.875 128.211 146.627 127.996 146.456 127.739L146.456 130.694H145.622L145.622 124.08H146.456L146.456 124.907ZM149.866 126.307C149.866 125.968 149.79 125.674 149.637 125.423C149.484 125.172 149.277 124.981 149.014 124.85C148.757 124.719 148.473 124.653 148.161 124.653C147.856 124.653 147.572 124.721 147.309 124.858C147.052 124.989 146.844 125.183 146.685 125.439C146.533 125.69 146.456 125.982 146.456 126.315C146.456 126.653 146.533 126.951 146.685 127.207C146.844 127.458 147.052 127.652 147.309 127.788C147.572 127.919 147.856 127.985 148.161 127.985C148.473 127.985 148.757 127.919 149.014 127.788C149.277 127.652 149.484 127.458 149.637 127.207C149.79 126.951 149.866 126.65 149.866 126.307Z" fill="#B3B3B3"/>
<path d="M156.452 128.639C155.982 128.639 155.554 128.544 155.169 128.353C154.79 128.162 154.49 127.892 154.27 127.543C154.056 127.188 153.949 126.779 153.949 126.315C153.949 125.856 154.059 125.453 154.279 125.103C154.506 124.749 154.811 124.479 155.196 124.293C155.581 124.102 156.012 124.007 156.489 124.007C156.965 124.007 157.396 124.102 157.781 124.293C158.166 124.479 158.469 124.746 158.689 125.095C158.915 125.444 159.028 125.851 159.028 126.315C159.028 126.779 158.912 127.188 158.68 127.543C158.454 127.892 158.145 128.162 157.754 128.353C157.363 128.544 156.929 128.639 156.452 128.639ZM156.452 127.985C156.752 127.985 157.033 127.922 157.295 127.796C157.558 127.671 157.769 127.483 157.928 127.232C158.093 126.981 158.176 126.675 158.176 126.315C158.176 125.955 158.096 125.649 157.937 125.398C157.778 125.147 157.571 124.961 157.314 124.841C157.057 124.716 156.779 124.653 156.48 124.653C156.174 124.653 155.893 124.716 155.636 124.841C155.386 124.961 155.184 125.147 155.031 125.398C154.878 125.649 154.802 125.955 154.802 126.315C154.802 126.68 154.875 126.989 155.022 127.24C155.175 127.491 155.376 127.679 155.627 127.805C155.878 127.925 156.153 127.985 156.452 127.985Z" fill="#B3B3B3"/>
<path d="M162.169 124.694H161.115L161.115 128.566H160.281L160.281 124.694H159.63L159.63 124.08H160.281L160.281 123.761C160.281 123.259 160.424 122.893 160.712 122.664C161.005 122.429 161.473 122.312 162.114 122.312L162.114 122.934C161.748 122.934 161.488 123 161.335 123.131C161.188 123.256 161.115 123.466 161.115 123.761L161.115 124.08H162.169L162.169 124.694Z" fill="#B3B3B3"/>
<path d="M165.274 125.709C165.274 125.152 165.415 124.653 165.696 124.211C165.977 123.764 166.359 123.414 166.842 123.163C167.331 122.912 167.872 122.787 168.465 122.787C169.161 122.787 169.769 122.937 170.289 123.237C170.808 123.537 171.187 123.963 171.426 124.514H170.426C170.249 124.17 169.992 123.906 169.656 123.72C169.326 123.535 168.929 123.442 168.465 123.442C168.018 123.442 167.618 123.535 167.264 123.72C166.909 123.906 166.631 124.17 166.429 124.514C166.228 124.852 166.127 125.251 166.127 125.709C166.127 126.162 166.228 126.56 166.429 126.904C166.631 127.242 166.909 127.504 167.264 127.69C167.618 127.875 168.018 127.968 168.465 127.968C168.929 127.968 169.326 127.878 169.656 127.698C169.992 127.513 170.249 127.248 170.426 126.904H171.426C171.187 127.45 170.808 127.873 170.289 128.173C169.769 128.468 169.161 128.615 168.465 128.615C167.872 128.615 167.331 128.492 166.842 128.247C166.359 127.996 165.977 127.649 165.696 127.207C165.415 126.765 165.274 126.266 165.274 125.709Z" fill="#B3B3B3"/>
<path d="M174.858 128.639C174.388 128.639 173.96 128.544 173.575 128.353C173.196 128.162 172.897 127.892 172.677 127.543C172.463 127.188 172.356 126.779 172.356 126.315C172.356 125.856 172.466 125.453 172.686 125.103C172.912 124.749 173.218 124.479 173.603 124.293C173.988 124.102 174.418 124.007 174.895 124.007C175.372 124.007 175.803 124.102 176.188 124.293C176.573 124.479 176.875 124.746 177.095 125.095C177.321 125.444 177.434 125.851 177.434 126.315C177.434 126.779 177.318 127.188 177.086 127.543C176.86 127.892 176.551 128.162 176.16 128.353C175.769 128.544 175.335 128.639 174.858 128.639ZM174.858 127.985C175.158 127.985 175.439 127.922 175.702 127.796C175.965 127.671 176.176 127.483 176.334 127.232C176.499 126.981 176.582 126.675 176.582 126.315C176.582 125.955 176.502 125.649 176.344 125.398C176.185 125.147 175.977 124.961 175.72 124.841C175.464 124.716 175.185 124.653 174.886 124.653C174.58 124.653 174.299 124.716 174.043 124.841C173.792 124.961 173.59 125.147 173.438 125.398C173.285 125.649 173.208 125.955 173.208 126.315C173.208 126.68 173.282 126.989 173.428 127.24C173.581 127.491 173.783 127.679 174.033 127.805C174.284 127.925 174.559 127.985 174.858 127.985Z" fill="#B3B3B3"/>
<path d="M184.573 123.998C184.964 123.998 185.312 124.072 185.618 124.219C185.923 124.361 186.165 124.577 186.342 124.866C186.519 125.155 186.608 125.507 186.608 125.922L186.608 128.566H185.783L185.783 126.028C185.783 125.581 185.657 125.24 185.407 125.005C185.162 124.765 184.829 124.645 184.408 124.645C183.974 124.645 183.628 124.771 183.372 125.022C183.115 125.267 182.987 125.625 182.987 126.094L182.987 128.566H182.162L182.162 126.028C182.162 125.581 182.036 125.24 181.786 125.005C181.541 124.765 181.208 124.645 180.787 124.645C180.353 124.645 180.007 124.771 179.751 125.022C179.494 125.267 179.366 125.625 179.366 126.094L179.366 128.566H178.531L178.531 124.08H179.366L179.366 124.727C179.531 124.492 179.751 124.312 180.026 124.187C180.307 124.061 180.615 123.998 180.952 123.998C181.373 123.998 181.746 124.083 182.07 124.252C182.394 124.421 182.635 124.67 182.794 124.997C182.935 124.68 183.167 124.435 183.491 124.26C183.815 124.086 184.175 123.998 184.573 123.998Z" fill="#B3B3B3"/>
<path d="M188.81 124.907C188.976 124.65 189.22 124.438 189.544 124.268C189.874 124.094 190.256 124.007 190.69 124.007C191.136 124.007 191.539 124.102 191.9 124.293C192.267 124.484 192.554 124.754 192.762 125.103C192.969 125.447 193.073 125.848 193.073 126.307C193.073 126.76 192.969 127.163 192.762 127.518C192.554 127.873 192.267 128.148 191.9 128.345C191.539 128.541 191.136 128.639 190.69 128.639C190.262 128.639 189.883 128.555 189.553 128.386C189.229 128.211 188.982 127.996 188.81 127.739L188.81 130.694H187.976L187.976 124.08H188.81L188.81 124.907ZM192.221 126.307C192.221 125.968 192.144 125.674 191.992 125.423C191.839 125.172 191.631 124.981 191.368 124.85C191.112 124.719 190.827 124.653 190.516 124.653C190.21 124.653 189.926 124.721 189.663 124.858C189.406 124.989 189.199 125.183 189.04 125.439C188.887 125.69 188.81 125.982 188.81 126.315C188.81 126.653 188.887 126.951 189.04 127.207C189.199 127.458 189.406 127.652 189.663 127.788C189.926 127.919 190.21 127.985 190.516 127.985C190.827 127.985 191.112 127.919 191.368 127.788C191.631 127.652 191.839 127.458 191.992 127.207C192.144 126.951 192.221 126.65 192.221 126.307Z" fill="#B3B3B3"/>
<path d="M193.86 126.307C193.86 125.848 193.964 125.447 194.171 125.103C194.379 124.754 194.663 124.484 195.024 124.293C195.391 124.102 195.797 124.007 196.243 124.007C196.683 124.007 197.065 124.091 197.389 124.26C197.713 124.429 197.954 124.642 198.113 124.899L198.113 124.08H198.957L198.957 128.566H198.113L198.113 127.731C197.948 127.993 197.701 128.211 197.371 128.386C197.047 128.555 196.668 128.639 196.234 128.639C195.788 128.639 195.385 128.541 195.024 128.345C194.663 128.148 194.379 127.873 194.171 127.518C193.964 127.163 193.86 126.76 193.86 126.307ZM198.113 126.315C198.113 125.976 198.037 125.682 197.884 125.431C197.731 125.18 197.524 124.989 197.261 124.858C197.004 124.721 196.72 124.653 196.408 124.653C196.097 124.653 195.812 124.719 195.556 124.85C195.299 124.981 195.094 125.172 194.941 125.423C194.789 125.674 194.712 125.968 194.712 126.307C194.712 126.65 194.789 126.951 194.941 127.207C195.094 127.458 195.299 127.652 195.556 127.788C195.812 127.919 196.097 127.985 196.408 127.985C196.72 127.985 197.004 127.919 197.261 127.788C197.524 127.652 197.731 127.458 197.884 127.207C198.037 126.951 198.113 126.653 198.113 126.315Z" fill="#B3B3B3"/>
<path d="M202.814 123.998C203.425 123.998 203.92 124.165 204.299 124.498C204.678 124.825 204.868 125.3 204.868 125.922L204.868 128.566H204.043L204.043 126.028C204.043 125.581 203.917 125.24 203.667 125.005C203.416 124.765 203.074 124.645 202.64 124.645C202.2 124.645 201.849 124.768 201.586 125.013C201.329 125.259 201.201 125.616 201.201 126.086L201.201 128.566H200.367L200.367 124.08H201.201L201.201 124.719C201.366 124.489 201.589 124.312 201.87 124.187C202.157 124.061 202.472 123.998 202.814 123.998Z" fill="#B3B3B3"/>
<path d="M206.661 123.352C206.502 123.352 206.368 123.303 206.258 123.204C206.148 123.106 206.093 122.986 206.093 122.844C206.093 122.702 206.148 122.582 206.258 122.484C206.368 122.386 206.502 122.337 206.661 122.337C206.814 122.337 206.942 122.386 207.046 122.484C207.156 122.582 207.211 122.702 207.211 122.844C207.211 122.986 207.156 123.106 207.046 123.204C206.942 123.303 206.814 123.352 206.661 123.352ZM207.065 124.08L207.065 128.566H206.23L206.23 124.08H207.065Z" fill="#B3B3B3"/>
<path d="M213.07 126.151C213.07 126.293 213.061 126.443 213.043 126.601H209.027C209.058 127.043 209.226 127.39 209.532 127.641C209.843 127.886 210.219 128.009 210.659 128.009C211.02 128.009 211.319 127.936 211.558 127.788C211.802 127.635 211.973 127.433 212.071 127.182H212.969C212.835 127.614 212.566 127.966 212.163 128.238C211.759 128.506 211.258 128.639 210.659 128.639C210.182 128.639 209.755 128.544 209.376 128.353C209.003 128.162 208.71 127.892 208.496 127.543C208.282 127.188 208.175 126.779 208.175 126.315C208.175 125.851 208.279 125.444 208.486 125.095C208.694 124.746 208.985 124.479 209.357 124.293C209.736 124.102 210.17 124.007 210.659 124.007C211.136 124.007 211.558 124.099 211.924 124.285C212.291 124.47 212.572 124.727 212.768 125.054C212.969 125.376 213.07 125.742 213.07 126.151ZM212.208 125.996C212.208 125.712 212.138 125.469 211.998 125.267C211.857 125.06 211.665 124.904 211.42 124.801C211.182 124.691 210.916 124.637 210.622 124.637C210.201 124.637 209.84 124.757 209.541 124.997C209.247 125.237 209.079 125.57 209.037 125.996H212.208Z" fill="#B3B3B3"/>
<path d="M215.95 128.639C215.565 128.639 215.219 128.582 214.914 128.468C214.608 128.348 214.367 128.184 214.19 127.976C214.012 127.764 213.915 127.521 213.896 127.248H214.758C214.782 127.472 214.899 127.654 215.106 127.796C215.32 127.938 215.598 128.009 215.941 128.009C216.258 128.009 216.509 127.946 216.692 127.821C216.876 127.695 216.967 127.537 216.967 127.346C216.967 127.15 216.87 127.005 216.674 126.912C216.478 126.814 216.176 126.719 215.766 126.626C215.394 126.539 215.088 126.451 214.85 126.364C214.617 126.271 214.416 126.137 214.245 125.963C214.08 125.783 213.997 125.548 213.997 125.259C213.997 125.03 214.074 124.82 214.226 124.629C214.379 124.438 214.596 124.288 214.877 124.178C215.158 124.064 215.479 124.007 215.84 124.007C216.396 124.007 216.845 124.132 217.187 124.383C217.53 124.634 217.713 124.978 217.737 125.414H216.903C216.885 125.18 216.778 124.992 216.582 124.85C216.393 124.708 216.136 124.637 215.812 124.637C215.513 124.637 215.274 124.694 215.097 124.809C214.92 124.923 214.831 125.073 214.831 125.259C214.831 125.406 214.883 125.529 214.987 125.627C215.097 125.72 215.232 125.796 215.391 125.856C215.556 125.911 215.782 125.974 216.069 126.045C216.43 126.132 216.723 126.219 216.949 126.307C217.175 126.388 217.368 126.514 217.527 126.683C217.692 126.852 217.777 127.073 217.783 127.346C217.783 127.592 217.707 127.813 217.554 128.009C217.401 128.206 217.184 128.361 216.903 128.476C216.628 128.585 216.31 128.639 215.95 128.639Z" fill="#B3B3B3"/>
<g filter="url(#filter0_f_202_2487)">
<ellipse cx="175.793" cy="257.647" rx="164.793" ry="9.55318" fill="url(#paint0_linear_202_2487)" fill-opacity="0.9"/>
</g>
</g>
<defs>
<filter id="filter0_f_202_2487" x="-14.7935" y="222.3" width="381.173" height="70.6935" filterUnits="userSpaceOnUse" color-interpolation-filters="sRGB">
<feFlood flood-opacity="0" result="BackgroundImageFix"/>
<feBlend mode="normal" in="SourceGraphic" in2="BackgroundImageFix" result="shape"/>
<feGaussianBlur stdDeviation="12.8968" result="effect1_foregroundBlur_202_2487"/>
</filter>
<linearGradient id="paint0_linear_202_2487" x1="340.585" y1="257.647" x2="11" y2="257.647" gradientUnits="userSpaceOnUse">
<stop stop-opacity="0"/>
<stop offset="0.6875" stop-color="#0A0A0A"/>
</linearGradient>
<clipPath id="clip0_202_2487">
<rect width="341" height="284" fill="white"/>
</clipPath>
</defs>
</svg>
