<svg width="2880" height="167" viewBox="0 0 2880 167" fill="none" xmlns="http://www.w3.org/2000/svg">
<path d="M-119.893 61.5H1080.11L1134.11 163.5L1167.11 145.5H1699.11L1726.11 163.5L1780.11 61.5H2879.11" stroke="url(#paint0_linear_1110_816)" stroke-width="4"/>
<g style="mix-blend-mode:color">
<path d="M1002.11 -85.5H1858.11L1714.11 166.5L1682.61 142.5H1433.11H1183.61L1134.11 166.5L1002.11 -85.5Z" fill="url(#paint1_linear_1110_816)"/>
</g>
<g opacity="0.3">
<path d="M1818.11 76.5H1860.11L1812.11 166.5H1770.11L1818.11 76.5Z" fill="url(#paint2_linear_1110_816)"/>
<path d="M1872.11 76.5H1914.11L1866.11 166.5H1824.11L1872.11 76.5Z" fill="url(#paint3_linear_1110_816)"/>
</g>
<g opacity="0.3">
<path d="M1042.11 76.5H1000.11L1048.11 166.5H1090.11L1042.11 76.5Z" fill="url(#paint4_linear_1110_816)"/>
<path d="M988.107 76.5H946.107L994.107 166.5H1036.11L988.107 76.5Z" fill="url(#paint5_linear_1110_816)"/>
</g>
<g clip-path="url(#clip0_1110_816)">
<path d="M1567.42 36.4996C1567.42 36.4996 1550.5 46.2522 1549.56 71.0449C1549.56 71.0449 1535.81 67.5198 1528.17 80.9149C1528.17 80.9149 1511.72 76.8024 1503.73 88.7875C1503.73 88.7875 1497.03 89.14 1494.45 95.485C1494.33 95.8375 1494.21 96.19 1494.1 96.425C1493.98 96.0725 1493.86 95.72 1493.74 95.485C1491.16 89.14 1484.46 88.7875 1484.46 88.7875C1476.59 76.8024 1460.02 80.9149 1460.02 80.9149C1452.38 67.5198 1438.63 71.0449 1438.63 71.0449C1437.69 46.2522 1420.77 36.4996 1420.77 36.4996L1472.95 50.9522C1474.36 56.4748 1483.76 63.0548 1483.76 63.0548L1486.46 69.5173C1486.46 69.5173 1488.22 67.7548 1487.05 65.7573C1485.87 63.7598 1485.4 57.7673 1485.4 57.7673L1488.46 61.5273H1499.5L1502.56 57.7673C1502.56 57.7673 1502.09 63.7598 1500.91 65.7573C1499.74 67.7548 1501.5 69.5173 1501.5 69.5173L1504.2 63.0548C1504.2 63.0548 1513.6 56.4748 1515.01 50.9522L1567.42 36.4996Z" fill="url(#paint6_linear_1110_816)"/>
<path d="M1539.1 64.5819L1517.36 53.5368L1517.59 52.9493L1539.1 64.5819Z" fill="#0E0E0E"/>
<path d="M1523.12 70.1052L1517.12 53.3026L1517.71 53.0676L1523.12 70.1052Z" fill="#0E0E0E"/>
<path d="M1506.55 64.6998C1509.02 63.5248 1511.37 61.9973 1513.36 60.2348C1514.3 59.2948 1515.24 58.2373 1515.95 57.0623C1516.65 55.8873 1517.01 54.5948 1517.12 53.3023V53.0673H1517.24C1523 51.5398 1528.76 50.0122 1534.51 48.4847L1543.21 46.2522C1546.15 45.5472 1548.97 44.8422 1551.91 44.1372C1549.09 44.9597 1546.15 45.7822 1543.33 46.6047L1534.63 48.9547C1528.87 50.4822 1523.12 52.0098 1517.36 53.5373L1517.59 53.3023C1517.48 54.7123 1517.01 56.1223 1516.18 57.2973C1515.48 58.4723 1514.42 59.5298 1513.48 60.4698C1512.42 61.4098 1511.25 62.1148 1510.07 62.9373C1509.02 63.5248 1507.84 64.1123 1506.55 64.6998Z" fill="#0E0E0E"/>
<path d="M1449.09 64.5824L1470.59 52.9498L1470.95 53.5373L1449.09 64.5824Z" fill="#0E0E0E"/>
<path d="M1465.19 70.1056L1470.48 53.068L1471.06 53.303L1465.19 70.1056Z" fill="#0E0E0E"/>
<path d="M1481.75 64.7011C1480.46 64.2311 1479.29 63.5261 1477.99 62.8211C1476.82 62.1161 1475.64 61.2936 1474.59 60.3536C1473.53 59.4136 1472.59 58.3561 1471.88 57.1811C1471.06 56.0061 1470.71 54.5961 1470.47 53.1861L1470.71 53.4211C1464.95 51.8935 1459.19 50.366 1453.44 48.8385L1444.74 46.4885C1441.8 45.666 1438.98 44.8435 1436.16 44.021C1439.1 44.726 1441.92 45.431 1444.86 46.136L1453.55 48.3685C1459.31 49.896 1465.07 51.4235 1470.83 52.9511H1470.94V53.1861C1471.06 54.4786 1471.41 55.7711 1472.12 56.9461C1472.82 58.1211 1473.76 59.1786 1474.7 60.1186C1476.82 61.9986 1479.17 63.5261 1481.75 64.7011Z" fill="#0E0E0E"/>
</g>
<path fill-rule="evenodd" clip-rule="evenodd" d="M1332.16 109.095C1332.16 106.503 1330.75 104.235 1328.7 103.011C1329.96 101.714 1330.72 99.9505 1330.72 98.0065C1330.72 94.1184 1327.55 90.9144 1323.62 90.9144H1323.37H1306.13V92.4264C1306.13 92.5029 1306.13 92.5779 1306.14 92.6512H1306.11V116.151H1309.63V116.151C1325.63 116.155 1325.06 116.187 1325.06 116.187C1328.99 116.187 1332.16 113.019 1332.16 109.095ZM1309.63 101.966V94.0824H1323.62C1325.78 94.0824 1327.55 95.8465 1327.55 98.0065C1327.55 100.202 1325.78 101.966 1323.62 101.966H1309.63ZM1319.16 105.135H1309.63V113.019H1325.06C1327.22 113.019 1328.99 111.255 1328.99 109.095C1328.99 106.935 1327.22 105.171 1325.06 105.171V105.135H1319.16ZM1372.83 116.151L1359.98 90.9144H1358.04C1356.99 90.9144 1356.06 91.5264 1355.55 92.4264L1343.49 116.151H1347.09L1358.15 94.4785L1367.61 113.019H1355.95L1354.33 116.151H1372.83ZM1389.89 100.382C1390.79 100.382 1391.55 101.138 1391.55 102.038V116.151H1389.89C1388.99 116.151 1388.27 115.431 1388.27 114.531V100.382H1389.89ZM1399.65 90.9144C1400.55 90.9144 1401.27 91.6704 1401.27 92.5704V94.0824H1380.17C1379.27 94.0824 1378.52 93.3624 1378.52 92.4264V90.9144H1399.65ZM1416.04 103.551C1416.04 98.3305 1420.28 94.0824 1425.5 94.0824H1434.79C1435.69 94.0824 1436.45 93.3624 1436.45 92.4264V90.9144H1425.5C1418.52 90.9144 1412.87 96.5665 1412.87 103.551C1412.87 110.535 1418.52 116.187 1425.5 116.187C1425.5 116.187 1425.36 116.151 1436.45 116.151V114.675C1436.45 113.739 1435.69 113.019 1434.79 113.019H1425.5C1420.28 113.019 1416.04 108.771 1416.04 103.551ZM1460.57 90.9144L1473.42 116.151H1454.92L1456.54 113.019H1468.2L1458.73 94.4785L1447.68 116.151H1444.08L1456.14 92.4264C1456.65 91.5264 1457.58 90.9144 1458.63 90.9144H1460.57ZM1489.73 104.631L1483.39 92.2104C1482.99 91.4184 1482.17 90.9144 1481.3 90.9144H1479.11L1488.47 109.239L1489.73 106.755C1490.05 106.107 1490.05 105.279 1489.73 104.631ZM1508.45 90.9144H1506.29C1505.39 90.9144 1504.59 91.4184 1504.16 92.2104L1491.96 116.187H1495.59L1508.45 90.9144ZM1540.66 113.019C1541.56 113.019 1542.32 113.739 1542.32 114.675V116.151H1518.38V116.15H1518.38V93.8251H1518.38V90.9144H1541.96V92.4264C1541.96 93.3624 1541.2 94.0824 1540.3 94.0824H1521.9V101.966H1539.73V103.479C1539.73 104.379 1539.01 105.135 1538.07 105.135H1521.9V113.019H1540.66Z" fill="white"/>
<path d="M1557.12 91.9164H1554.25C1554.25 91.2663 1554.56 90.9412 1555.17 90.9412H1561.08C1561.08 91.5913 1560.77 91.9164 1560.16 91.9164H1558.22V98.3555C1558.22 98.6532 1558.13 98.8803 1557.94 99.037C1557.75 99.1937 1557.48 99.272 1557.12 99.272V91.9164ZM1562.96 91.7519C1562.96 91.4621 1563.06 91.2388 1563.25 91.0822C1563.45 90.9177 1563.72 90.8354 1564.06 90.8354L1566.91 97.6622L1566.68 98.2145L1566.77 98.2498L1569.77 90.8354C1570.12 90.8354 1570.39 90.9177 1570.58 91.0822C1570.79 91.2467 1570.89 91.4738 1570.89 91.7637V99.272C1570.16 99.272 1569.8 98.9704 1569.8 98.3673V93.4205L1570.1 92.6097L1570.01 92.5862L1567.39 98.9548C1567.35 99.0488 1567.29 99.1232 1567.2 99.178C1567.11 99.2407 1567.02 99.272 1566.93 99.272C1566.83 99.272 1566.73 99.2446 1566.65 99.1898C1566.56 99.1349 1566.5 99.0566 1566.46 98.9548L1563.84 92.5744L1563.75 92.6097L1564.05 93.4087V98.3673C1564.05 98.6649 1563.96 98.8921 1563.77 99.0488C1563.59 99.1976 1563.32 99.272 1562.96 99.272V91.7519Z" fill="white"/>
<defs>
<linearGradient id="paint0_linear_1110_816" x1="1380.09" y1="163.6" x2="1380.09" y2="61.5" gradientUnits="userSpaceOnUse">
<stop stop-color="#007AFF"/>
<stop offset="0.4615" stop-color="#004289"/>
<stop offset="1" stop-color="#001934"/>
</linearGradient>
<linearGradient id="paint1_linear_1110_816" x1="1430.24" y1="166.747" x2="1430.24" y2="-85.5" gradientUnits="userSpaceOnUse">
<stop stop-color="#007AFF"/>
<stop offset="0.4615" stop-color="#004289"/>
<stop offset="1" stop-color="#001934"/>
</linearGradient>
<linearGradient id="paint2_linear_1110_816" x1="1815.12" y1="166.588" x2="1815.12" y2="76.5" gradientUnits="userSpaceOnUse">
<stop stop-color="#007AFF"/>
<stop offset="0.4615" stop-color="#004289"/>
<stop offset="1" stop-color="#001934"/>
</linearGradient>
<linearGradient id="paint3_linear_1110_816" x1="1869.12" y1="166.588" x2="1869.12" y2="76.5" gradientUnits="userSpaceOnUse">
<stop stop-color="#007AFF"/>
<stop offset="0.4615" stop-color="#004289"/>
<stop offset="1" stop-color="#001934"/>
</linearGradient>
<linearGradient id="paint4_linear_1110_816" x1="1045.09" y1="166.588" x2="1045.09" y2="76.5" gradientUnits="userSpaceOnUse">
<stop stop-color="#007AFF"/>
<stop offset="0.4615" stop-color="#004289"/>
<stop offset="1" stop-color="#001934"/>
</linearGradient>
<linearGradient id="paint5_linear_1110_816" x1="991.093" y1="166.588" x2="991.093" y2="76.5" gradientUnits="userSpaceOnUse">
<stop stop-color="#007AFF"/>
<stop offset="0.4615" stop-color="#004289"/>
<stop offset="1" stop-color="#001934"/>
</linearGradient>
<linearGradient id="paint6_linear_1110_816" x1="1494.12" y1="96.4837" x2="1494.12" y2="36.4996" gradientUnits="userSpaceOnUse">
<stop stop-color="#007AFF"/>
<stop offset="0.4615" stop-color="#004289"/>
<stop offset="1" stop-color="#001934"/>
</linearGradient>
<clipPath id="clip0_1110_816">
<rect width="146.642" height="59.9254" fill="white" transform="translate(1420.78 36.4998)"/>
</clipPath>
</defs>
</svg>
