<svg width="1500" height="83" viewBox="0 0 1500 83" fill="none" xmlns="http://www.w3.org/2000/svg">
<g clip-path="url(#clip0_1080_986)">
<path d="M0 30.5H600L627 81.5L643.5 72.5H909.5L923 81.5L950 30.5H1499.5" stroke="url(#paint0_linear_1080_986)" stroke-width="2"/>
<g style="mix-blend-mode:color">
<path d="M561 -43H990L923 83L907.25 71H776.5H651.75L627 83L561 -43Z" fill="url(#paint1_linear_1080_986)"/>
</g>
<g opacity="0.3">
<path d="M969 38H990L966 83H945L969 38Z" fill="url(#paint2_linear_1080_986)"/>
<path d="M996 38H1017L993 83H972L996 38Z" fill="url(#paint3_linear_1080_986)"/>
</g>
<g opacity="0.3">
<path d="M581 38H560L584 83H605L581 38Z" fill="url(#paint4_linear_1080_986)"/>
<path d="M554 38H533L557 83H578L554 38Z" fill="url(#paint5_linear_1080_986)"/>
</g>
<g clip-path="url(#clip1_1080_986)">
<path d="M843.655 17.9999C843.655 17.9999 835.195 22.8762 834.725 35.2725C834.725 35.2725 827.851 33.51 824.032 40.2075C824.032 40.2075 815.807 38.1513 811.812 44.1438C811.812 44.1438 808.463 44.32 807.17 47.4926C807.112 47.6688 807.053 47.8451 806.994 47.9626C806.935 47.7863 806.877 47.6101 806.818 47.4926C805.525 44.32 802.177 44.1438 802.177 44.1438C798.24 38.1513 789.956 40.2075 789.956 40.2075C786.138 33.51 779.264 35.2725 779.264 35.2725C778.794 22.8762 770.334 17.9999 770.334 17.9999L796.419 25.2262C797.124 27.9874 801.824 31.2775 801.824 31.2775L803.175 34.5087C803.175 34.5087 804.057 33.6275 803.469 32.6287C802.882 31.63 802.647 28.6337 802.647 28.6337L804.174 30.5137H809.697L811.224 28.6337C811.224 28.6337 810.989 31.63 810.402 32.6287C809.814 33.6275 810.695 34.5087 810.695 34.5087L812.047 31.2775C812.047 31.2775 816.747 27.9874 817.452 25.2262L843.655 17.9999Z" fill="url(#paint6_linear_1080_986)"/>
<path d="M829.495 32.041L818.626 26.5185L818.744 26.2247L829.495 32.041Z" fill="#0E0E0E"/>
<path d="M821.505 34.8027L818.509 26.4014L818.803 26.2839L821.505 34.8027Z" fill="#0E0E0E"/>
<path d="M813.221 32.1C814.455 31.5125 815.63 30.7487 816.629 29.8675C817.099 29.3975 817.569 28.8687 817.921 28.2812C818.274 27.6937 818.45 27.0474 818.509 26.4012V26.2837H818.568C821.446 25.5199 824.325 24.7562 827.204 23.9924L831.551 22.8762C833.02 22.5237 834.43 22.1712 835.899 21.8187C834.489 22.2299 833.02 22.6412 831.61 23.0524L827.263 24.2274C824.384 24.9912 821.505 25.7549 818.626 26.5187L818.744 26.4012C818.685 27.1062 818.45 27.8112 818.039 28.3987C817.686 28.9862 817.157 29.515 816.687 29.985C816.159 30.455 815.571 30.8075 814.984 31.2187C814.455 31.5125 813.867 31.8062 813.221 32.1Z" fill="#0E0E0E"/>
<path d="M784.491 32.0413L795.243 26.225L795.419 26.5187L784.491 32.0413Z" fill="#0E0E0E"/>
<path d="M792.54 34.8029L795.184 26.2841L795.478 26.4016L792.54 34.8029Z" fill="#0E0E0E"/>
<path d="M800.824 32.1006C800.178 31.8656 799.59 31.5131 798.944 31.1606C798.356 30.8081 797.769 30.3969 797.24 29.9269C796.711 29.4569 796.241 28.9281 795.889 28.3406C795.478 27.7531 795.301 27.0481 795.184 26.3431L795.301 26.4606C792.423 25.6968 789.544 24.9331 786.665 24.1693L782.317 22.9943C780.849 22.5831 779.439 22.1718 778.029 21.7606C779.497 22.1131 780.907 22.4656 782.376 22.8181L786.724 23.9343C789.602 24.6981 792.481 25.4618 795.36 26.2256H795.419V26.3431C795.478 26.9893 795.654 27.6356 796.006 28.2231C796.359 28.8106 796.829 29.3394 797.299 29.8094C798.356 30.7494 799.531 31.5131 800.824 32.1006Z" fill="#0E0E0E"/>
</g>
<path fill-rule="evenodd" clip-rule="evenodd" d="M726.025 54.2973C726.025 53.0013 725.323 51.8673 724.297 51.2553C724.927 50.6073 725.305 49.7253 725.305 48.7533C725.305 46.8093 723.721 45.2073 721.759 45.2073H721.633H713.011V45.9633C713.011 46.0015 713.013 46.039 713.018 46.0757H713.001V57.8258H714.764V57.8256C722.763 57.8276 722.479 57.8434 722.479 57.8434C724.441 57.8434 726.025 56.2593 726.025 54.2973ZM714.764 50.7333V46.7913H721.759C722.839 46.7913 723.721 47.6733 723.721 48.7533C723.721 49.8513 722.839 50.7333 721.759 50.7333H714.764ZM719.527 52.3173H714.764V56.2593H722.479C723.559 56.2593 724.441 55.3773 724.441 54.2973C724.441 53.2173 723.559 52.3353 722.479 52.3353V52.3173H719.527ZM746.363 57.8254L739.937 45.2073H738.965C738.443 45.2073 737.975 45.5133 737.723 45.9633L731.693 57.8254H733.493L739.019 46.9893L743.753 56.2593H737.921L737.111 57.8254H746.363ZM754.894 49.9413C755.344 49.9413 755.722 50.3193 755.722 50.7693V57.8254H754.894C754.444 57.8254 754.084 57.4654 754.084 57.0154V49.9413H754.894ZM759.772 45.2073C760.222 45.2073 760.582 45.5853 760.582 46.0353V46.7913H750.034C749.584 46.7913 749.206 46.4313 749.206 45.9633V45.2073H759.772ZM767.965 51.5253C767.965 48.9153 770.089 46.7913 772.699 46.7913H777.343C777.793 46.7913 778.171 46.4313 778.171 45.9633V45.2073H772.699C769.207 45.2073 766.381 48.0333 766.381 51.5253C766.381 55.0173 769.207 57.8434 772.699 57.8434C772.699 57.8434 772.627 57.8254 778.171 57.8254V57.0873C778.171 56.6193 777.793 56.2593 777.343 56.2593H772.699C770.089 56.2593 767.965 54.1353 767.965 51.5253ZM790.231 45.2073L796.657 57.8254H787.405L788.215 56.2593H794.047L789.313 46.9893L783.787 57.8254H781.987L788.017 45.9633C788.269 45.5133 788.737 45.2073 789.259 45.2073H790.231ZM804.81 52.0653L801.642 45.8553C801.444 45.4593 801.03 45.2073 800.598 45.2073H799.5L804.18 54.3693L804.81 53.1273C804.972 52.8033 804.972 52.3893 804.81 52.0653ZM814.17 45.2073H813.09C812.64 45.2073 812.244 45.4593 812.028 45.8553L805.926 57.8434H807.744L814.17 45.2073ZM830.278 56.2593C830.728 56.2593 831.106 56.6193 831.106 57.0873V57.8254H819.135V57.8252H819.135V46.6626H819.135V45.2073H830.926V45.9633C830.926 46.4313 830.548 46.7913 830.098 46.7913H820.897V50.7333H829.81V51.4893C829.81 51.9393 829.45 52.3173 828.982 52.3173H820.897V56.2593H830.278Z" fill="white"/>
<path d="M838.506 45.7083H837.073C837.073 45.3832 837.225 45.2206 837.531 45.2206H840.486C840.486 45.5457 840.333 45.7083 840.028 45.7083H839.058V48.9278C839.058 49.0766 839.011 49.1902 838.917 49.2686C838.823 49.3469 838.686 49.3861 838.506 49.3861V45.7083ZM841.426 45.626C841.426 45.4811 841.475 45.3695 841.573 45.2911C841.671 45.2089 841.806 45.1678 841.978 45.1678L843.4 48.5812L843.288 48.8573L843.329 48.8749L844.833 45.1678C845.006 45.1678 845.141 45.2089 845.239 45.2911C845.341 45.3734 845.392 45.487 845.392 45.6319V49.3861C845.027 49.3861 844.845 49.2353 844.845 48.9337V46.4603L844.998 46.0549L844.951 46.0432L843.641 49.2274C843.621 49.2744 843.59 49.3116 843.547 49.3391C843.504 49.3704 843.459 49.3861 843.412 49.3861C843.361 49.3861 843.314 49.3724 843.271 49.3449C843.228 49.3175 843.196 49.2784 843.177 49.2274L841.867 46.0373L841.82 46.0549L841.972 46.4544V48.9337C841.972 49.0825 841.925 49.1961 841.831 49.2744C841.741 49.3489 841.606 49.3861 841.426 49.3861V45.626Z" fill="white"/>
</g>
<defs>
<linearGradient id="paint0_linear_1080_986" x1="749.99" y1="81.5499" x2="749.99" y2="30.5" gradientUnits="userSpaceOnUse">
<stop stop-color="#007AFF"/>
<stop offset="0.4615" stop-color="#004289"/>
<stop offset="1" stop-color="#001934"/>
</linearGradient>
<linearGradient id="paint1_linear_1080_986" x1="775.569" y1="83.1233" x2="775.569" y2="-43" gradientUnits="userSpaceOnUse">
<stop stop-color="#007AFF"/>
<stop offset="0.4615" stop-color="#004289"/>
<stop offset="1" stop-color="#001934"/>
</linearGradient>
<linearGradient id="paint2_linear_1080_986" x1="967.507" y1="83.044" x2="967.507" y2="38" gradientUnits="userSpaceOnUse">
<stop stop-color="#007AFF"/>
<stop offset="0.4615" stop-color="#004289"/>
<stop offset="1" stop-color="#001934"/>
</linearGradient>
<linearGradient id="paint3_linear_1080_986" x1="994.507" y1="83.044" x2="994.507" y2="38" gradientUnits="userSpaceOnUse">
<stop stop-color="#007AFF"/>
<stop offset="0.4615" stop-color="#004289"/>
<stop offset="1" stop-color="#001934"/>
</linearGradient>
<linearGradient id="paint4_linear_1080_986" x1="582.493" y1="83.044" x2="582.493" y2="38" gradientUnits="userSpaceOnUse">
<stop stop-color="#007AFF"/>
<stop offset="0.4615" stop-color="#004289"/>
<stop offset="1" stop-color="#001934"/>
</linearGradient>
<linearGradient id="paint5_linear_1080_986" x1="555.493" y1="83.044" x2="555.493" y2="38" gradientUnits="userSpaceOnUse">
<stop stop-color="#007AFF"/>
<stop offset="0.4615" stop-color="#004289"/>
<stop offset="1" stop-color="#001934"/>
</linearGradient>
<linearGradient id="paint6_linear_1080_986" x1="807.006" y1="47.9919" x2="807.006" y2="17.9999" gradientUnits="userSpaceOnUse">
<stop stop-color="#007AFF"/>
<stop offset="0.4615" stop-color="#004289"/>
<stop offset="1" stop-color="#001934"/>
</linearGradient>
<clipPath id="clip0_1080_986">
<rect width="1500" height="83" fill="white"/>
</clipPath>
<clipPath id="clip1_1080_986">
<rect width="73.321" height="29.9627" fill="white" transform="translate(770.334 17.9999)"/>
</clipPath>
</defs>
</svg>
