<svg width="1440" height="83" viewBox="0 0 1440 83" fill="none" xmlns="http://www.w3.org/2000/svg">
<g clip-path="url(#clip0_1134_1201)">
<rect width="1440" height="83" fill="#080909"/>
<path d="M-55 30.5H545L572 81.5L588.5 72.5H854.5L868 81.5L895 30.5H1444.5" stroke="url(#paint0_linear_1134_1201)" stroke-width="2"/>
<g style="mix-blend-mode:color">
<path d="M505 -43H933L868 83L852.25 72H727.5H590.75L571 83L505 -43Z" fill="url(#paint1_linear_1134_1201)"/>
</g>
<g opacity="0.3">
<path d="M914 38H935L911 83H890L914 38Z" fill="url(#paint2_linear_1134_1201)"/>
<path d="M941 38H962L938 83H917L941 38Z" fill="url(#paint3_linear_1134_1201)"/>
</g>
<g opacity="0.3">
<path d="M526 38H505L529 83H550L526 38Z" fill="url(#paint4_linear_1134_1201)"/>
<path d="M499 38H478L502 83H523L499 38Z" fill="url(#paint5_linear_1134_1201)"/>
</g>
<g clip-path="url(#clip1_1134_1201)">
<path d="M783.045 15C783.045 15 774.751 19.7808 774.29 31.9344C774.29 31.9344 767.551 30.2064 763.807 36.7728C763.807 36.7728 755.743 34.7568 751.826 40.632C751.826 40.632 748.543 40.8048 747.275 43.9152C747.218 44.088 747.16 44.2608 747.103 44.376C747.045 44.2032 746.987 44.0304 746.93 43.9152C745.663 40.8048 742.379 40.632 742.379 40.632C738.52 34.7568 730.399 36.7728 730.399 36.7728C726.655 30.2064 719.915 31.9344 719.915 31.9344C719.455 19.7808 711.16 15 711.16 15L736.735 22.0848C737.426 24.792 742.034 28.0176 742.034 28.0176L743.359 31.1856C743.359 31.1856 744.223 30.3216 743.647 29.3424C743.071 28.3632 742.84 25.4256 742.84 25.4256L744.338 27.2688H749.752L751.25 25.4256C751.25 25.4256 751.019 28.3632 750.443 29.3424C749.867 30.3216 750.731 31.1856 750.731 31.1856L752.056 28.0176C752.056 28.0176 756.664 24.792 757.355 22.0848L783.045 15Z" fill="url(#paint6_linear_1134_1201)"/>
<path d="M769.162 28.7673L758.506 23.3529L758.622 23.0649L769.162 28.7673Z" fill="#0E0E0E"/>
<path d="M761.33 31.4741L758.392 23.2373L758.68 23.1221L761.33 31.4741Z" fill="#0E0E0E"/>
<path d="M753.208 28.8251C754.417 28.2491 755.569 27.5003 756.548 26.6363C757.009 26.1755 757.47 25.6571 757.816 25.0811C758.161 24.5051 758.334 23.8715 758.392 23.2379V23.1227H758.449C761.272 22.3739 764.094 21.6251 766.916 20.8763L771.179 19.7819C772.619 19.4363 774.001 19.0907 775.441 18.7451C774.059 19.1483 772.619 19.5515 771.236 19.9547L766.974 21.1067C764.152 21.8555 761.329 22.6043 758.507 23.3531L758.622 23.2379C758.564 23.9291 758.334 24.6203 757.931 25.1963C757.585 25.7723 757.067 26.2907 756.606 26.7515C756.088 27.2123 755.512 27.5579 754.936 27.9611C754.417 28.2491 753.841 28.5371 753.208 28.8251Z" fill="#0E0E0E"/>
<path d="M725.041 28.7664L735.581 23.064L735.754 23.352L725.041 28.7664Z" fill="#0E0E0E"/>
<path d="M732.931 31.4731L735.523 23.1211L735.811 23.2363L732.931 31.4731Z" fill="#0E0E0E"/>
<path d="M741.054 28.8241C740.421 28.5937 739.845 28.2481 739.211 27.9025C738.635 27.5569 738.059 27.1537 737.541 26.6929C737.022 26.2321 736.562 25.7137 736.216 25.1377C735.813 24.5617 735.64 23.8705 735.525 23.1793L735.64 23.2945C732.818 22.5457 729.995 21.7969 727.173 21.0481L722.91 19.8961C721.47 19.4929 720.088 19.0897 718.706 18.6865C720.146 19.0321 721.528 19.3777 722.968 19.7233L727.23 20.8177C730.053 21.5665 732.875 22.3153 735.698 23.0641H735.755V23.1793C735.813 23.8129 735.986 24.4465 736.331 25.0225C736.677 25.5985 737.138 26.1169 737.598 26.5777C738.635 27.4993 739.787 28.2481 741.054 28.8241Z" fill="#0E0E0E"/>
</g>
<path fill-rule="evenodd" clip-rule="evenodd" d="M667.768 50.7099C667.768 49.4393 667.08 48.3275 666.074 47.7275C666.692 47.0921 667.062 46.2274 667.062 45.2744C667.062 43.3685 665.509 41.7979 663.586 41.7979H663.462H655.009V42.5391C655.009 42.5763 655.011 42.6129 655.016 42.6486H655V54.1686H655.009V54.1689C664.609 54.1689 664.292 54.1865 664.292 54.1865C666.215 54.1865 667.768 52.6335 667.768 50.7099ZM656.728 47.2157V43.3508H663.586C664.644 43.3508 665.509 44.2156 665.509 45.2744C665.509 46.3509 664.644 47.2157 663.586 47.2157H656.728ZM661.397 48.7687H656.728V52.6335H664.292C665.35 52.6335 666.215 51.7688 666.215 50.7099C666.215 49.6511 665.35 48.7863 664.292 48.7863V48.7687H661.397ZM687.708 54.1689L681.408 41.7979H680.455C679.943 41.7979 679.485 42.0979 679.238 42.5391L673.326 54.1689H675.09L680.508 43.545L685.15 52.6335H679.432L678.638 54.1689H687.708ZM696.072 46.4392C696.513 46.4392 696.884 46.8098 696.884 47.251V54.1689H696.072C695.631 54.1689 695.278 53.8159 695.278 53.3747V46.4392H696.072ZM700.854 41.7979C701.295 41.7979 701.648 42.1685 701.648 42.6096V43.3508H691.307C690.866 43.3508 690.495 42.9979 690.495 42.5391V41.7979H700.854ZM708.886 47.9922C708.886 45.4333 710.969 43.3508 713.528 43.3508H718.081C718.522 43.3508 718.893 42.9979 718.893 42.5391V41.7979H713.528C710.104 41.7979 707.333 44.5685 707.333 47.9922C707.333 51.4158 710.104 54.1865 713.528 54.1865C713.528 54.1865 713.457 54.1689 718.893 54.1689V53.4453C718.893 52.9865 718.522 52.6335 718.081 52.6335H713.528C710.969 52.6335 708.886 50.5511 708.886 47.9922ZM730.717 41.7979L737.017 54.1689H727.946L728.74 52.6335H734.458L729.817 43.545L724.399 54.1689H722.634L728.546 42.5391C728.793 42.0979 729.252 41.7979 729.764 41.7979H730.717ZM745.01 48.5216L741.904 42.4332C741.71 42.0449 741.304 41.7979 740.88 41.7979H739.804L744.392 50.7805L745.01 49.5628C745.169 49.2452 745.169 48.8393 745.01 48.5216ZM754.187 41.7979H753.128C752.687 41.7979 752.298 42.0449 752.087 42.4332L746.104 54.1865H747.886L754.187 41.7979ZM769.979 52.6335C770.42 52.6335 770.791 52.9865 770.791 53.4453V54.1689H759.055V54.1681H759.055V43.2241H759.055V41.7979H770.614V42.5391C770.614 42.9979 770.244 43.3508 769.802 43.3508H760.783V47.2157H769.52V47.9569C769.52 48.3981 769.167 48.7687 768.708 48.7687H760.783V52.6335H769.979Z" fill="white"/>
<path d="M778.047 42.406H776.642C776.642 42.0873 776.791 41.928 777.091 41.928H779.988C779.988 42.2467 779.838 42.406 779.539 42.406H778.588V45.5625C778.588 45.7084 778.542 45.8198 778.45 45.8966C778.358 45.9734 778.224 46.0118 778.047 46.0118V42.406ZM780.91 42.3254C780.91 42.1833 780.958 42.0739 781.054 41.9971C781.15 41.9164 781.282 41.8761 781.451 41.8761L782.845 45.2227L782.735 45.4934L782.776 45.5107L784.25 41.8761C784.419 41.8761 784.552 41.9164 784.648 41.9971C784.748 42.0777 784.798 42.1891 784.798 42.3312V46.0118C784.44 46.0118 784.262 45.864 784.262 45.5683V43.1433L784.412 42.7459L784.366 42.7344L783.081 45.8563C783.062 45.9024 783.031 45.9388 782.989 45.9657C782.947 45.9964 782.903 46.0118 782.856 46.0118C782.807 46.0118 782.76 45.9984 782.718 45.9715C782.676 45.9446 782.645 45.9062 782.626 45.8563L781.342 42.7286L781.295 42.7459L781.445 43.1376V45.5683C781.445 45.7142 781.399 45.8256 781.307 45.9024C781.219 45.9753 781.086 46.0118 780.91 46.0118V42.3254Z" fill="white"/>
<path d="M717.523 61.3198L719.055 57.4779H719.47L720.996 61.3198H720.553L719.222 57.8638L719.308 57.8523L717.972 61.3198H717.523ZM718.197 60.1217L718.375 59.7243H720.259L720.288 60.1217H718.197ZM725.175 61.3774C724.699 61.3774 724.329 61.2373 724.064 60.9569C723.803 60.6766 723.672 60.2753 723.672 59.7531V57.4779H724.087V59.7761C724.087 60.187 724.179 60.4923 724.363 60.692C724.548 60.8878 724.818 60.9857 725.175 60.9857C725.532 60.9857 725.805 60.8878 725.993 60.692C726.181 60.4923 726.276 60.187 726.276 59.7761V57.4779H726.679V59.7531C726.679 60.1025 726.619 60.3982 726.5 60.6401C726.381 60.8821 726.21 61.0664 725.988 61.1931C725.765 61.316 725.494 61.3774 725.175 61.3774ZM730.719 61.3198V57.8696H729.359V57.4779H732.487V57.8696H731.133V61.3198H730.719ZM736.659 61.3774C736.279 61.3774 735.96 61.3045 735.703 61.1585C735.45 61.0088 735.258 60.788 735.127 60.4961C735 60.2043 734.937 59.8395 734.937 59.4017C734.937 58.7489 735.081 58.2574 735.369 57.9272C735.661 57.5931 736.091 57.4261 736.659 57.4261C737.043 57.4261 737.362 57.5009 737.615 57.6507C737.873 57.7966 738.065 58.0155 738.191 58.3073C738.322 58.5992 738.387 58.964 738.387 59.4017C738.387 60.0545 738.241 60.548 737.95 60.8821C737.662 61.2123 737.231 61.3774 736.659 61.3774ZM736.659 60.9857C736.963 60.9857 737.21 60.9301 737.402 60.8187C737.594 60.7073 737.735 60.5345 737.823 60.3003C737.915 60.0661 737.961 59.7665 737.961 59.4017C737.961 59.0369 737.915 58.7393 737.823 58.5089C737.735 58.2747 737.594 58.1019 737.402 57.9905C737.21 57.8753 736.963 57.8177 736.659 57.8177C736.36 57.8177 736.114 57.8753 735.922 57.9905C735.73 58.1019 735.588 58.2747 735.496 58.5089C735.407 58.7393 735.363 59.0369 735.363 59.4017C735.363 59.7665 735.407 60.0661 735.496 60.3003C735.588 60.5345 735.73 60.7073 735.922 60.8187C736.114 60.9301 736.36 60.9857 736.659 60.9857ZM741.295 61.3198V57.4779H741.744L743.167 59.6609L742.884 59.7243L744.388 57.4779H744.837V61.3198H744.422V57.8926H744.607L743.023 60.116L741.56 57.9387L741.709 57.7256V61.3198H741.295ZM749.469 61.3774C749.089 61.3774 748.77 61.3045 748.513 61.1585C748.259 61.0088 748.067 60.788 747.937 60.4961C747.81 60.2043 747.747 59.8395 747.747 59.4017C747.747 58.7489 747.891 58.2574 748.179 57.9272C748.471 57.5931 748.901 57.4261 749.469 57.4261C749.853 57.4261 750.172 57.5009 750.425 57.6507C750.682 57.7966 750.874 58.0155 751.001 58.3073C751.132 58.5992 751.197 58.964 751.197 59.4017C751.197 60.0545 751.051 60.548 750.759 60.8821C750.471 61.2123 750.041 61.3774 749.469 61.3774ZM749.469 60.9857C749.772 60.9857 750.02 60.9301 750.212 60.8187C750.404 60.7073 750.544 60.5345 750.633 60.3003C750.725 60.0661 750.771 59.7665 750.771 59.4017C750.771 59.0369 750.725 58.7393 750.633 58.5089C750.544 58.2747 750.404 58.1019 750.212 57.9905C750.02 57.8753 749.772 57.8177 749.469 57.8177C749.169 57.8177 748.924 57.8753 748.732 57.9905C748.54 58.1019 748.398 58.2747 748.305 58.5089C748.217 58.7393 748.173 59.0369 748.173 59.4017C748.173 59.7665 748.217 60.0661 748.305 60.3003C748.398 60.5345 748.54 60.7073 748.732 60.8187C748.924 60.9301 749.169 60.9857 749.469 60.9857ZM755.005 61.3198V57.8696H753.646V57.4779H756.773V57.8696H755.42V61.3198H755.005ZM759.452 61.3198V57.4779H759.866V61.3198H759.452ZM764.02 61.3198L762.546 57.4779H762.989L764.32 60.9685H764.17L765.478 57.4894L765.904 57.4779L764.429 61.3198H764.02ZM768.583 61.3198V57.4779H771.008V57.8696H768.997V59.1944H770.766V59.5976H768.997V60.9281H771.008V61.3198H768.583Z" fill="white"/>
</g>
<defs>
<linearGradient id="paint0_linear_1134_1201" x1="694.99" y1="81.5499" x2="694.99" y2="30.5" gradientUnits="userSpaceOnUse">
<stop stop-color="#007AFF"/>
<stop offset="0.4615" stop-color="#004289"/>
<stop offset="1" stop-color="#001934"/>
</linearGradient>
<linearGradient id="paint1_linear_1134_1201" x1="719.069" y1="83.1233" x2="719.069" y2="-43" gradientUnits="userSpaceOnUse">
<stop stop-color="#007AFF"/>
<stop offset="0.4615" stop-color="#004289"/>
<stop offset="1" stop-color="#001934"/>
</linearGradient>
<linearGradient id="paint2_linear_1134_1201" x1="912.507" y1="83.044" x2="912.507" y2="38" gradientUnits="userSpaceOnUse">
<stop stop-color="#007AFF"/>
<stop offset="0.4615" stop-color="#004289"/>
<stop offset="1" stop-color="#001934"/>
</linearGradient>
<linearGradient id="paint3_linear_1134_1201" x1="939.507" y1="83.044" x2="939.507" y2="38" gradientUnits="userSpaceOnUse">
<stop stop-color="#007AFF"/>
<stop offset="0.4615" stop-color="#004289"/>
<stop offset="1" stop-color="#001934"/>
</linearGradient>
<linearGradient id="paint4_linear_1134_1201" x1="527.493" y1="83.044" x2="527.493" y2="38" gradientUnits="userSpaceOnUse">
<stop stop-color="#007AFF"/>
<stop offset="0.4615" stop-color="#004289"/>
<stop offset="1" stop-color="#001934"/>
</linearGradient>
<linearGradient id="paint5_linear_1134_1201" x1="500.493" y1="83.044" x2="500.493" y2="38" gradientUnits="userSpaceOnUse">
<stop stop-color="#007AFF"/>
<stop offset="0.4615" stop-color="#004289"/>
<stop offset="1" stop-color="#001934"/>
</linearGradient>
<linearGradient id="paint6_linear_1134_1201" x1="747.114" y1="44.4047" x2="747.114" y2="15" gradientUnits="userSpaceOnUse">
<stop stop-color="#007AFF"/>
<stop offset="0.4615" stop-color="#004289"/>
<stop offset="1" stop-color="#001934"/>
</linearGradient>
<clipPath id="clip0_1134_1201">
<rect width="1440" height="83" fill="white"/>
</clipPath>
<clipPath id="clip1_1134_1201">
<rect width="71.8848" height="29.376" fill="white" transform="translate(711.16 14.9998)"/>
</clipPath>
</defs>
</svg>
