<svg width="173" height="99" viewBox="0 0 173 99" fill="none" xmlns="http://www.w3.org/2000/svg">
<g filter="url(#filter0_d_105_585)">
<path d="M148.8 16C148.8 16 134.4 24.3 133.6 45.4C133.6 45.4 121.9 42.4 115.4 53.8C115.4 53.8 101.4 50.3 94.6 60.5C94.6 60.5 88.9 60.8 86.7 66.2C86.6 66.5 86.5 66.8 86.4 67C86.3 66.7 86.2 66.4 86.1 66.2C83.9 60.8 78.2 60.5 78.2 60.5C71.5 50.3 57.4 53.8 57.4 53.8C50.9 42.4 39.2 45.4 39.2 45.4C38.4 24.3 24 16 24 16L68.4 28.3C69.6 33 77.6 38.6 77.6 38.6L79.9 44.1C79.9 44.1 81.4 42.6 80.4 40.9C79.4 39.2 79 34.1 79 34.1L81.6 37.3H91L93.6 34.1C93.6 34.1 93.2 39.2 92.2 40.9C91.2 42.6 92.7 44.1 92.7 44.1L95 38.6C95 38.6 103 33 104.2 28.3L148.8 16Z" fill="url(#paint0_linear_105_585)"/>
</g>
<defs>
<filter id="filter0_d_105_585" x="0" y="0" width="172.8" height="99" filterUnits="userSpaceOnUse" color-interpolation-filters="sRGB">
<feFlood flood-opacity="0" result="BackgroundImageFix"/>
<feColorMatrix in="SourceAlpha" type="matrix" values="0 0 0 0 0 0 0 0 0 0 0 0 0 0 0 0 0 0 127 0" result="hardAlpha"/>
<feOffset dy="8"/>
<feGaussianBlur stdDeviation="12"/>
<feComposite in2="hardAlpha" operator="out"/>
<feColorMatrix type="matrix" values="0 0 0 0 0 0 0 0 0 0 0 0 0 0 0 0 0 0 0.6 0"/>
<feBlend mode="normal" in2="BackgroundImageFix" result="effect1_dropShadow_105_585"/>
<feBlend mode="normal" in="SourceGraphic" in2="effect1_dropShadow_105_585" result="shape"/>
</filter>
<linearGradient id="paint0_linear_105_585" x1="86.42" y1="67.0499" x2="86.42" y2="16" gradientUnits="userSpaceOnUse">
<stop stop-color="#007AFF"/>
<stop offset="0.4615" stop-color="#004289"/>
<stop offset="1" stop-color="#001934"/>
</linearGradient>
</defs>
</svg>
