<svg width="25" height="24" viewBox="0 0 25 24" fill="none" xmlns="http://www.w3.org/2000/svg">
<g id="Frame 34409">
<g id="&#240;&#159;&#166;&#134; icon &#34;Mail&#34;">
<path id="Vector" d="M2.95532 8.86091V16.8C2.95532 18.5674 4.388 20 6.1553 20H18.9552C20.7226 20 22.1552 18.5674 22.1552 16.8V7.2C22.1552 5.43269 20.7226 4 18.9552 4H6.1553C4.388 4 2.95532 5.43269 2.95532 7.2V8.86091ZM6.1553 5.6H18.9552C19.8389 5.6 20.5552 6.31635 20.5552 7.2V8.38379L12.5554 12.6914L4.55531 8.38362V7.2C4.55531 6.31635 5.27166 5.6 6.1553 5.6ZM4.55531 10.2008L12.1761 14.3044C12.4129 14.4319 12.6979 14.4319 12.9347 14.3044L20.5552 10.201V16.8C20.5552 17.6837 19.8389 18.4 18.9552 18.4H6.1553C5.27166 18.4 4.55531 17.6837 4.55531 16.8V10.2008Z" fill="#999999"/>
</g>
</g>
</svg>
