<svg width="382" height="293" viewBox="0 0 382 293" fill="none" xmlns="http://www.w3.org/2000/svg">
<path d="M3 -0.000244141L344.121 -0.000244141L344.121 201.163H3.00022L3 -0.000244141Z" fill="#060606"/>
<path d="M164.369 79.1613L162.066 75.1256H166.597L168.9 79.1613H164.369Z" fill="white"/>
<path d="M173.443 95.6145L166.415 83.197H171.1L173.443 87.3586L175.786 83.197H180.395L173.443 95.6145Z" fill="white"/>
<path d="M177.91 79.1613L180.139 75.1256H184.745L182.442 79.1613H177.91Z" fill="white"/>
<path d="M140.697 103.807L140.697 112.293H138.765L138.765 103.807H140.697Z" fill="white"/>
<path d="M150.847 112.293H148.915L144.539 106.47L144.539 112.293H142.607L142.607 103.795H144.539L148.915 109.631L148.915 103.795H150.847L150.847 112.293Z" fill="white"/>
<path d="M161.411 103.807L157.878 112.293H155.531L151.998 103.807H154.068L156.718 110.555L159.355 103.807H161.411Z" fill="white"/>
<path d="M164.502 103.807L164.502 112.293H162.57L162.57 103.807H164.502Z" fill="white"/>
<path d="M165.942 108.038C165.942 107.203 166.154 106.458 166.577 105.801C167.01 105.137 167.594 104.622 168.33 104.257C169.075 103.884 169.908 103.698 170.828 103.698C171.905 103.698 172.848 103.941 173.658 104.427C174.468 104.914 175.034 105.586 175.356 106.446H173.133C172.913 106.04 172.6 105.736 172.195 105.534C171.799 105.331 171.339 105.23 170.815 105.23C170.253 105.23 169.752 105.347 169.31 105.582C168.878 105.809 168.537 106.134 168.289 106.555C168.049 106.976 167.93 107.471 167.93 108.038C167.93 108.597 168.049 109.092 168.289 109.521C168.537 109.943 168.878 110.271 169.31 110.506C169.752 110.733 170.253 110.846 170.815 110.846C171.339 110.846 171.799 110.745 172.195 110.542C172.6 110.332 172.913 110.024 173.133 109.619H175.356C175.034 110.486 174.468 111.162 173.658 111.649C172.857 112.127 171.914 112.366 170.828 112.366C169.908 112.366 169.075 112.184 168.33 111.819C167.594 111.446 167.01 110.931 166.577 110.275C166.154 109.619 165.942 108.873 165.942 108.038Z" fill="white"/>
<path d="M178.939 103.807L178.939 112.293H177.006L177.006 103.807H178.939Z" fill="white"/>
<path d="M185.32 112.378C184.418 112.378 183.59 112.192 182.836 111.819C182.081 111.446 181.483 110.931 181.041 110.275C180.599 109.61 180.379 108.861 180.379 108.026C180.379 107.199 180.599 106.458 181.041 105.801C181.483 105.137 182.081 104.618 182.836 104.245C183.59 103.872 184.418 103.686 185.32 103.686C186.231 103.686 187.059 103.872 187.805 104.245C188.559 104.618 189.153 105.137 189.585 105.801C190.027 106.458 190.248 107.199 190.248 108.026C190.248 108.861 190.027 109.61 189.585 110.275C189.153 110.931 188.559 111.446 187.805 111.819C187.05 112.192 186.222 112.378 185.32 112.378ZM185.32 110.859C185.9 110.859 186.411 110.745 186.852 110.518C187.294 110.283 187.639 109.951 187.887 109.521C188.136 109.092 188.26 108.593 188.26 108.026C188.26 107.459 188.136 106.964 187.887 106.543C187.639 106.113 187.294 105.785 186.852 105.558C186.411 105.331 185.9 105.218 185.32 105.218C184.74 105.218 184.225 105.331 183.774 105.558C183.332 105.785 182.987 106.113 182.739 106.543C182.49 106.964 182.366 107.459 182.366 108.026C182.366 108.593 182.49 109.092 182.739 109.521C182.987 109.951 183.332 110.283 183.774 110.518C184.225 110.745 184.74 110.859 185.32 110.859Z" fill="white"/>
<path d="M193.59 103.807L193.59 109.059C193.59 109.635 193.76 110.076 194.101 110.384C194.441 110.684 194.92 110.834 195.536 110.834C196.162 110.834 196.645 110.684 196.986 110.384C197.326 110.076 197.496 109.635 197.496 109.059L197.496 103.807H199.443L199.443 109.047C199.443 109.768 199.263 110.38 198.904 110.883C198.555 111.377 198.081 111.75 197.483 112.001C196.894 112.253 196.236 112.378 195.509 112.378C194.791 112.378 194.138 112.253 193.549 112.001C192.969 111.75 192.509 111.377 192.169 110.883C191.828 110.38 191.658 109.768 191.658 109.047L191.658 103.807H193.59Z" fill="white"/>
<path d="M204.636 112.378C203.965 112.378 203.357 112.277 202.814 112.074C202.281 111.872 201.857 111.58 201.544 111.199C201.232 110.818 201.07 110.368 201.061 109.85H203.132C203.159 110.198 203.297 110.474 203.546 110.676C203.803 110.879 204.153 110.98 204.595 110.98C205.046 110.98 205.4 110.887 205.658 110.7C205.915 110.506 206.044 110.255 206.044 109.947C206.044 109.696 205.957 109.489 205.782 109.327C205.607 109.165 205.386 109.039 205.119 108.95C204.862 108.853 204.503 108.747 204.043 108.634C203.417 108.472 202.906 108.314 202.511 108.16C202.124 107.998 201.788 107.759 201.503 107.442C201.227 107.118 201.089 106.689 201.089 106.154C201.089 105.651 201.231 105.214 201.517 104.841C201.802 104.468 202.202 104.184 202.718 103.99C203.233 103.787 203.822 103.686 204.484 103.686C205.478 103.686 206.283 103.901 206.9 104.33C207.526 104.752 207.871 105.343 207.935 106.105H205.809C205.791 105.813 205.648 105.574 205.382 105.388C205.124 105.193 204.779 105.096 204.346 105.096C203.969 105.096 203.665 105.181 203.435 105.351C203.215 105.522 203.104 105.769 203.104 106.093C203.104 106.32 203.187 106.51 203.353 106.664C203.527 106.81 203.739 106.932 203.987 107.029C204.245 107.118 204.604 107.224 205.064 107.345C205.69 107.507 206.201 107.669 206.596 107.831C206.992 107.994 207.332 108.237 207.618 108.561C207.903 108.885 208.046 109.311 208.046 109.837C208.046 110.291 207.912 110.713 207.645 111.102C207.378 111.491 206.987 111.803 206.472 112.038C205.957 112.265 205.345 112.378 204.636 112.378Z" fill="white"/>
<path d="M131.179 124.514C131.002 124.181 130.746 123.925 130.409 123.745C130.073 123.559 129.682 123.466 129.236 123.466C128.79 123.466 128.386 123.559 128.026 123.745C127.671 123.925 127.39 124.187 127.182 124.53C126.981 124.869 126.88 125.262 126.88 125.709C126.88 126.157 126.981 126.549 127.182 126.888C127.39 127.226 127.671 127.488 128.026 127.674C128.386 127.854 128.79 127.944 129.236 127.944C129.859 127.944 130.373 127.777 130.776 127.444C131.179 127.112 131.415 126.661 131.482 126.094H128.933L128.933 125.488H132.371L132.371 126.061C132.322 126.53 132.157 126.961 131.876 127.354C131.595 127.742 131.225 128.05 130.767 128.279C130.309 128.503 129.798 128.615 129.236 128.615C128.643 128.615 128.102 128.492 127.613 128.247C127.124 127.996 126.736 127.649 126.449 127.207C126.168 126.765 126.027 126.266 126.027 125.709C126.027 125.152 126.168 124.653 126.449 124.211C126.736 123.764 127.124 123.417 127.613 123.172C128.102 122.921 128.643 122.795 129.236 122.795C129.914 122.795 130.513 122.945 131.033 123.245C131.558 123.545 131.94 123.968 132.179 124.514H131.179Z" fill="#B3B3B3"/>
<path d="M134.308 124.809C134.455 124.552 134.663 124.353 134.932 124.211C135.207 124.069 135.54 123.998 135.931 123.998L135.931 124.768H135.711C134.776 124.768 134.308 125.221 134.308 126.127L134.308 128.566H133.474L133.474 124.08H134.308L134.308 124.809Z" fill="#B3B3B3"/>
<path d="M139.085 128.639C138.615 128.639 138.187 128.544 137.802 128.353C137.423 128.162 137.123 127.892 136.903 127.543C136.689 127.188 136.582 126.779 136.582 126.315C136.582 125.856 136.692 125.453 136.912 125.103C137.139 124.749 137.444 124.479 137.829 124.293C138.214 124.102 138.645 124.007 139.122 124.007C139.598 124.007 140.029 124.102 140.414 124.293C140.799 124.479 141.102 124.746 141.322 125.095C141.548 125.444 141.661 125.851 141.661 126.315C141.661 126.779 141.545 127.188 141.313 127.543C141.087 127.892 140.778 128.162 140.387 128.353C139.996 128.544 139.562 128.639 139.085 128.639ZM139.085 127.985C139.385 127.985 139.666 127.922 139.929 127.796C140.191 127.671 140.402 127.483 140.561 127.232C140.726 126.981 140.809 126.675 140.809 126.315C140.809 125.955 140.729 125.649 140.57 125.398C140.411 125.147 140.204 124.961 139.947 124.841C139.69 124.716 139.412 124.653 139.113 124.653C138.807 124.653 138.526 124.716 138.269 124.841C138.019 124.961 137.817 125.147 137.664 125.398C137.511 125.649 137.435 125.955 137.435 126.315C137.435 126.68 137.508 126.989 137.655 127.24C137.808 127.491 138.009 127.679 138.26 127.805C138.511 127.925 138.786 127.985 139.085 127.985Z" fill="#B3B3B3"/>
<path d="M147.213 124.08L147.213 128.566H146.379L146.379 127.903C146.22 128.132 145.997 128.312 145.71 128.443C145.429 128.569 145.117 128.631 144.775 128.631C144.384 128.631 144.032 128.56 143.721 128.418C143.409 128.271 143.161 128.053 142.978 127.764C142.801 127.474 142.712 127.122 142.712 126.708L142.712 124.08H143.537L143.537 126.609C143.537 127.051 143.663 127.393 143.913 127.633C144.164 127.867 144.506 127.985 144.94 127.985C145.386 127.985 145.737 127.862 145.994 127.616C146.251 127.371 146.379 127.013 146.379 126.544L146.379 124.08H147.213Z" fill="#B3B3B3"/>
<path d="M149.456 124.907C149.621 124.65 149.866 124.438 150.19 124.268C150.52 124.094 150.902 124.007 151.335 124.007C151.782 124.007 152.185 124.102 152.546 124.293C152.912 124.484 153.199 124.754 153.407 125.103C153.615 125.447 153.719 125.848 153.719 126.307C153.719 126.76 153.615 127.163 153.407 127.518C153.199 127.873 152.912 128.148 152.546 128.345C152.185 128.541 151.782 128.639 151.335 128.639C150.908 128.639 150.529 128.555 150.199 128.386C149.875 128.211 149.627 127.996 149.456 127.739L149.456 130.694H148.622L148.622 124.08H149.456L149.456 124.907ZM152.866 126.307C152.866 125.968 152.79 125.674 152.637 125.423C152.484 125.172 152.277 124.981 152.014 124.85C151.757 124.719 151.473 124.653 151.161 124.653C150.856 124.653 150.572 124.721 150.309 124.858C150.052 124.989 149.844 125.183 149.685 125.439C149.533 125.69 149.456 125.982 149.456 126.315C149.456 126.653 149.533 126.951 149.685 127.207C149.844 127.458 150.052 127.652 150.309 127.788C150.572 127.919 150.856 127.985 151.161 127.985C151.473 127.985 151.757 127.919 152.014 127.788C152.277 127.652 152.484 127.458 152.637 127.207C152.79 126.951 152.866 126.65 152.866 126.307Z" fill="#B3B3B3"/>
<path d="M159.452 128.639C158.982 128.639 158.554 128.544 158.169 128.353C157.79 128.162 157.49 127.892 157.27 127.543C157.056 127.188 156.949 126.779 156.949 126.315C156.949 125.856 157.059 125.453 157.279 125.103C157.506 124.749 157.811 124.479 158.196 124.293C158.581 124.102 159.012 124.007 159.489 124.007C159.965 124.007 160.396 124.102 160.781 124.293C161.166 124.479 161.469 124.746 161.689 125.095C161.915 125.444 162.028 125.851 162.028 126.315C162.028 126.779 161.912 127.188 161.68 127.543C161.454 127.892 161.145 128.162 160.754 128.353C160.363 128.544 159.929 128.639 159.452 128.639ZM159.452 127.985C159.752 127.985 160.033 127.922 160.295 127.796C160.558 127.671 160.769 127.483 160.928 127.232C161.093 126.981 161.176 126.675 161.176 126.315C161.176 125.955 161.096 125.649 160.937 125.398C160.778 125.147 160.571 124.961 160.314 124.841C160.057 124.716 159.779 124.653 159.48 124.653C159.174 124.653 158.893 124.716 158.636 124.841C158.386 124.961 158.184 125.147 158.031 125.398C157.878 125.649 157.802 125.955 157.802 126.315C157.802 126.68 157.875 126.989 158.022 127.24C158.175 127.491 158.376 127.679 158.627 127.805C158.878 127.925 159.153 127.985 159.452 127.985Z" fill="#B3B3B3"/>
<path d="M165.169 124.694H164.115L164.115 128.566H163.281L163.281 124.694H162.63L162.63 124.08H163.281L163.281 123.761C163.281 123.259 163.424 122.893 163.712 122.664C164.005 122.429 164.473 122.312 165.114 122.312L165.114 122.934C164.748 122.934 164.488 123 164.335 123.131C164.188 123.256 164.115 123.466 164.115 123.761L164.115 124.08H165.169L165.169 124.694Z" fill="#B3B3B3"/>
<path d="M168.274 125.709C168.274 125.152 168.415 124.653 168.696 124.211C168.977 123.764 169.359 123.414 169.842 123.163C170.331 122.912 170.872 122.787 171.465 122.787C172.161 122.787 172.769 122.937 173.289 123.237C173.808 123.537 174.187 123.963 174.426 124.514H173.426C173.249 124.17 172.992 123.906 172.656 123.72C172.326 123.535 171.929 123.442 171.465 123.442C171.018 123.442 170.618 123.535 170.264 123.72C169.909 123.906 169.631 124.17 169.429 124.514C169.228 124.852 169.127 125.251 169.127 125.709C169.127 126.162 169.228 126.56 169.429 126.904C169.631 127.242 169.909 127.504 170.264 127.69C170.618 127.875 171.018 127.968 171.465 127.968C171.929 127.968 172.326 127.878 172.656 127.698C172.992 127.513 173.249 127.248 173.426 126.904H174.426C174.187 127.45 173.808 127.873 173.289 128.173C172.769 128.468 172.161 128.615 171.465 128.615C170.872 128.615 170.331 128.492 169.842 128.247C169.359 127.996 168.977 127.649 168.696 127.207C168.415 126.765 168.274 126.266 168.274 125.709Z" fill="#B3B3B3"/>
<path d="M177.858 128.639C177.388 128.639 176.96 128.544 176.575 128.353C176.196 128.162 175.897 127.892 175.677 127.543C175.463 127.188 175.356 126.779 175.356 126.315C175.356 125.856 175.466 125.453 175.686 125.103C175.912 124.749 176.218 124.479 176.603 124.293C176.988 124.102 177.418 124.007 177.895 124.007C178.372 124.007 178.803 124.102 179.188 124.293C179.573 124.479 179.875 124.746 180.095 125.095C180.321 125.444 180.434 125.851 180.434 126.315C180.434 126.779 180.318 127.188 180.086 127.543C179.86 127.892 179.551 128.162 179.16 128.353C178.769 128.544 178.335 128.639 177.858 128.639ZM177.858 127.985C178.158 127.985 178.439 127.922 178.702 127.796C178.965 127.671 179.176 127.483 179.334 127.232C179.499 126.981 179.582 126.675 179.582 126.315C179.582 125.955 179.502 125.649 179.344 125.398C179.185 125.147 178.977 124.961 178.72 124.841C178.464 124.716 178.185 124.653 177.886 124.653C177.58 124.653 177.299 124.716 177.043 124.841C176.792 124.961 176.59 125.147 176.438 125.398C176.285 125.649 176.208 125.955 176.208 126.315C176.208 126.68 176.282 126.989 176.428 127.24C176.581 127.491 176.783 127.679 177.033 127.805C177.284 127.925 177.559 127.985 177.858 127.985Z" fill="#B3B3B3"/>
<path d="M187.573 123.998C187.964 123.998 188.312 124.072 188.618 124.219C188.923 124.361 189.165 124.577 189.342 124.866C189.519 125.155 189.608 125.507 189.608 125.922L189.608 128.566H188.783L188.783 126.028C188.783 125.581 188.657 125.24 188.407 125.005C188.162 124.765 187.829 124.645 187.408 124.645C186.974 124.645 186.628 124.771 186.372 125.022C186.115 125.267 185.987 125.625 185.987 126.094L185.987 128.566H185.162L185.162 126.028C185.162 125.581 185.036 125.24 184.786 125.005C184.541 124.765 184.208 124.645 183.787 124.645C183.353 124.645 183.007 124.771 182.751 125.022C182.494 125.267 182.366 125.625 182.366 126.094L182.366 128.566H181.531L181.531 124.08H182.366L182.366 124.727C182.531 124.492 182.751 124.312 183.026 124.187C183.307 124.061 183.615 123.998 183.952 123.998C184.373 123.998 184.746 124.083 185.07 124.252C185.394 124.421 185.635 124.67 185.794 124.997C185.935 124.68 186.167 124.435 186.491 124.26C186.815 124.086 187.175 123.998 187.573 123.998Z" fill="#B3B3B3"/>
<path d="M191.81 124.907C191.976 124.65 192.22 124.438 192.544 124.268C192.874 124.094 193.256 124.007 193.69 124.007C194.136 124.007 194.539 124.102 194.9 124.293C195.267 124.484 195.554 124.754 195.762 125.103C195.969 125.447 196.073 125.848 196.073 126.307C196.073 126.76 195.969 127.163 195.762 127.518C195.554 127.873 195.267 128.148 194.9 128.345C194.539 128.541 194.136 128.639 193.69 128.639C193.262 128.639 192.883 128.555 192.553 128.386C192.229 128.211 191.982 127.996 191.81 127.739L191.81 130.694H190.976L190.976 124.08H191.81L191.81 124.907ZM195.221 126.307C195.221 125.968 195.144 125.674 194.992 125.423C194.839 125.172 194.631 124.981 194.368 124.85C194.112 124.719 193.827 124.653 193.516 124.653C193.21 124.653 192.926 124.721 192.663 124.858C192.406 124.989 192.199 125.183 192.04 125.439C191.887 125.69 191.81 125.982 191.81 126.315C191.81 126.653 191.887 126.951 192.04 127.207C192.199 127.458 192.406 127.652 192.663 127.788C192.926 127.919 193.21 127.985 193.516 127.985C193.827 127.985 194.112 127.919 194.368 127.788C194.631 127.652 194.839 127.458 194.992 127.207C195.144 126.951 195.221 126.65 195.221 126.307Z" fill="#B3B3B3"/>
<path d="M196.86 126.307C196.86 125.848 196.964 125.447 197.171 125.103C197.379 124.754 197.663 124.484 198.024 124.293C198.391 124.102 198.797 124.007 199.243 124.007C199.683 124.007 200.065 124.091 200.389 124.26C200.713 124.429 200.954 124.642 201.113 124.899L201.113 124.08H201.957L201.957 128.566H201.113L201.113 127.731C200.948 127.993 200.701 128.211 200.371 128.386C200.047 128.555 199.668 128.639 199.234 128.639C198.788 128.639 198.385 128.541 198.024 128.345C197.663 128.148 197.379 127.873 197.171 127.518C196.964 127.163 196.86 126.76 196.86 126.307ZM201.113 126.315C201.113 125.976 201.037 125.682 200.884 125.431C200.731 125.18 200.524 124.989 200.261 124.858C200.004 124.721 199.72 124.653 199.408 124.653C199.097 124.653 198.812 124.719 198.556 124.85C198.299 124.981 198.094 125.172 197.941 125.423C197.789 125.674 197.712 125.968 197.712 126.307C197.712 126.65 197.789 126.951 197.941 127.207C198.094 127.458 198.299 127.652 198.556 127.788C198.812 127.919 199.097 127.985 199.408 127.985C199.72 127.985 200.004 127.919 200.261 127.788C200.524 127.652 200.731 127.458 200.884 127.207C201.037 126.951 201.113 126.653 201.113 126.315Z" fill="#B3B3B3"/>
<path d="M205.814 123.998C206.425 123.998 206.92 124.165 207.299 124.498C207.678 124.825 207.868 125.3 207.868 125.922L207.868 128.566H207.043L207.043 126.028C207.043 125.581 206.917 125.24 206.667 125.005C206.416 124.765 206.074 124.645 205.64 124.645C205.2 124.645 204.849 124.768 204.586 125.013C204.329 125.259 204.201 125.616 204.201 126.086L204.201 128.566H203.367L203.367 124.08H204.201L204.201 124.719C204.366 124.489 204.589 124.312 204.87 124.187C205.157 124.061 205.472 123.998 205.814 123.998Z" fill="#B3B3B3"/>
<path d="M209.661 123.352C209.502 123.352 209.368 123.303 209.258 123.204C209.148 123.106 209.093 122.986 209.093 122.844C209.093 122.702 209.148 122.582 209.258 122.484C209.368 122.386 209.502 122.337 209.661 122.337C209.814 122.337 209.942 122.386 210.046 122.484C210.156 122.582 210.211 122.702 210.211 122.844C210.211 122.986 210.156 123.106 210.046 123.204C209.942 123.303 209.814 123.352 209.661 123.352ZM210.065 124.08L210.065 128.566H209.23L209.23 124.08H210.065Z" fill="#B3B3B3"/>
<path d="M216.07 126.151C216.07 126.293 216.061 126.443 216.043 126.601H212.027C212.058 127.043 212.226 127.39 212.532 127.641C212.843 127.886 213.219 128.009 213.659 128.009C214.02 128.009 214.319 127.936 214.558 127.788C214.802 127.635 214.973 127.433 215.071 127.182H215.969C215.835 127.614 215.566 127.966 215.163 128.238C214.759 128.506 214.258 128.639 213.659 128.639C213.182 128.639 212.755 128.544 212.376 128.353C212.003 128.162 211.71 127.892 211.496 127.543C211.282 127.188 211.175 126.779 211.175 126.315C211.175 125.851 211.279 125.444 211.486 125.095C211.694 124.746 211.985 124.479 212.357 124.293C212.736 124.102 213.17 124.007 213.659 124.007C214.136 124.007 214.558 124.099 214.924 124.285C215.291 124.47 215.572 124.727 215.768 125.054C215.969 125.376 216.07 125.742 216.07 126.151ZM215.208 125.996C215.208 125.712 215.138 125.469 214.998 125.267C214.857 125.06 214.665 124.904 214.42 124.801C214.182 124.691 213.916 124.637 213.622 124.637C213.201 124.637 212.84 124.757 212.541 124.997C212.247 125.237 212.079 125.57 212.037 125.996H215.208Z" fill="#B3B3B3"/>
<path d="M218.95 128.639C218.565 128.639 218.219 128.582 217.914 128.468C217.608 128.348 217.367 128.184 217.19 127.976C217.012 127.764 216.915 127.521 216.896 127.248H217.758C217.782 127.472 217.899 127.654 218.106 127.796C218.32 127.938 218.598 128.009 218.941 128.009C219.258 128.009 219.509 127.946 219.692 127.821C219.876 127.695 219.967 127.537 219.967 127.346C219.967 127.15 219.87 127.005 219.674 126.912C219.478 126.814 219.176 126.719 218.766 126.626C218.394 126.539 218.088 126.451 217.85 126.364C217.617 126.271 217.416 126.137 217.245 125.963C217.08 125.783 216.997 125.548 216.997 125.259C216.997 125.03 217.074 124.82 217.226 124.629C217.379 124.438 217.596 124.288 217.877 124.178C218.158 124.064 218.479 124.007 218.84 124.007C219.396 124.007 219.845 124.132 220.187 124.383C220.53 124.634 220.713 124.978 220.737 125.414H219.903C219.885 125.18 219.778 124.992 219.582 124.85C219.393 124.708 219.136 124.637 218.812 124.637C218.513 124.637 218.274 124.694 218.097 124.809C217.92 124.923 217.831 125.073 217.831 125.259C217.831 125.406 217.883 125.529 217.987 125.627C218.097 125.72 218.232 125.796 218.391 125.856C218.556 125.911 218.782 125.974 219.069 126.045C219.43 126.132 219.723 126.219 219.949 126.307C220.175 126.388 220.368 126.514 220.527 126.683C220.692 126.852 220.777 127.073 220.783 127.346C220.783 127.592 220.707 127.813 220.554 128.009C220.401 128.206 220.184 128.361 219.903 128.476C219.628 128.585 219.31 128.639 218.95 128.639Z" fill="#B3B3B3"/>
<g filter="url(#filter0_f_202_2487)">
<ellipse cx="190.73" cy="257.647" rx="164.793" ry="9.55318" fill="url(#paint0_linear_202_2487)" fill-opacity="0.9"/>
</g>
<defs>
<filter id="filter0_f_202_2487" x="0.143959" y="222.3" width="381.173" height="70.6935" filterUnits="userSpaceOnUse" color-interpolation-filters="sRGB">
<feFlood flood-opacity="0" result="BackgroundImageFix"/>
<feBlend mode="normal" in="SourceGraphic" in2="BackgroundImageFix" result="shape"/>
<feGaussianBlur stdDeviation="12.8968" result="effect1_foregroundBlur_202_2487"/>
</filter>
<linearGradient id="paint0_linear_202_2487" x1="355.523" y1="257.647" x2="25.9375" y2="257.647" gradientUnits="userSpaceOnUse">
<stop stop-opacity="0"/>
<stop offset="0.6875" stop-color="#0A0A0A"/>
</linearGradient>
</defs>
</svg>
