<svg width="19" height="19" viewBox="0 0 19 19" fill="none" xmlns="http://www.w3.org/2000/svg">
<path d="M14.2627 18.6975C13.3167 18.6975 12.3204 18.4715 11.2906 18.0361C10.286 17.6091 9.27297 17.0231 8.28506 16.3115C7.30553 15.5915 6.35948 14.7877 5.46367 13.9087C4.57623 13.0129 3.77251 12.0668 3.06088 11.0956C2.34088 10.091 1.76321 9.08635 1.35297 8.11518C0.917625 7.07704 0.699951 6.07239 0.699951 5.12635C0.699951 4.47332 0.81716 3.85379 1.04321 3.27611C1.27762 2.6817 1.65437 2.12914 2.16507 1.65193C2.80972 1.01565 3.54646 0.69751 4.33344 0.69751C4.65995 0.69751 4.99483 0.772859 5.27948 0.906812C5.60599 1.05751 5.88227 1.28356 6.0832 1.58495L8.02552 4.32263C8.20134 4.56542 8.33529 4.79984 8.42738 5.03425C8.53622 5.28542 8.59483 5.53658 8.59483 5.77937C8.59483 6.09751 8.50273 6.40728 8.32692 6.7003C8.20134 6.92635 8.00878 7.16914 7.76599 7.41193L7.19669 8.00635C7.20506 8.03146 7.21343 8.04821 7.2218 8.06495C7.32227 8.24077 7.5232 8.54216 7.90832 8.99425C8.31855 9.46309 8.70366 9.89007 9.08878 10.2836C9.58273 10.7691 9.99296 11.1543 10.3781 11.4724C10.8553 11.8743 11.1651 12.0752 11.3492 12.1673L11.3325 12.2091L11.9437 11.6063C12.2032 11.3468 12.4544 11.1543 12.6971 11.0287C13.1576 10.744 13.7437 10.6938 14.3297 10.9366C14.5474 11.0287 14.7818 11.1543 15.033 11.3301L17.8125 13.3059C18.1223 13.5152 18.3483 13.7831 18.4823 14.1012C18.6078 14.4194 18.6664 14.7124 18.6664 15.0054C18.6664 15.4073 18.5744 15.8091 18.3985 16.1859C18.2227 16.5626 18.005 16.8891 17.7288 17.1905C17.2516 17.718 16.7325 18.0947 16.1297 18.3375C15.552 18.5719 14.9241 18.6975 14.2627 18.6975ZM4.33344 1.95332C3.87297 1.95332 3.44599 2.15425 3.03576 2.55611C2.65065 2.91611 2.38274 3.3096 2.2153 3.73658C2.03948 4.17193 1.95576 4.63239 1.95576 5.12635C1.95576 5.90495 2.13995 6.75053 2.50832 7.62123C2.88507 8.50867 3.41251 9.4296 4.08227 10.3505C4.75204 11.2715 5.5139 12.1673 6.35111 13.0129C7.18832 13.8417 8.0925 14.6119 9.0218 15.2901C9.92599 15.9515 10.8553 16.4873 11.7762 16.8724C13.2078 17.4836 14.5474 17.6259 15.6525 17.1654C16.0795 16.9896 16.4562 16.7217 16.7995 16.3366C16.992 16.1273 17.1427 15.9012 17.2683 15.6333C17.3688 15.424 17.419 15.2063 17.419 14.9887C17.419 14.8547 17.3939 14.7208 17.3269 14.5701C17.3018 14.5198 17.2516 14.4277 17.0925 14.3189L14.313 12.3431C14.1455 12.2259 13.9948 12.1422 13.8525 12.0836C13.6683 12.0082 13.593 11.9329 13.3083 12.1087C13.1409 12.1924 12.9902 12.318 12.8227 12.4854L12.1865 13.1133C11.8599 13.4315 11.3576 13.5068 10.9725 13.3645L10.7465 13.264C10.4032 13.0798 10.0013 12.7952 9.55762 12.4184C9.15576 12.0752 8.72041 11.6733 8.19297 11.1543C7.78273 10.7356 7.3725 10.2919 6.94553 9.79797C6.55204 9.33751 6.26739 8.94402 6.09157 8.61751L5.99111 8.36635C5.94088 8.17379 5.92413 8.06495 5.92413 7.94774C5.92413 7.64635 6.03297 7.37844 6.24227 7.16914L6.87018 6.51611C7.03762 6.34867 7.1632 6.1896 7.24692 6.04728C7.3139 5.93844 7.33901 5.84635 7.33901 5.76263C7.33901 5.69565 7.3139 5.59518 7.27204 5.49472C7.21343 5.36077 7.12134 5.21007 7.00413 5.051L5.06181 2.30495C4.97809 2.18774 4.87762 2.10402 4.75204 2.04542C4.61809 1.98681 4.47576 1.95332 4.33344 1.95332ZM11.3325 12.2175L11.1985 12.7868L11.4246 12.2008C11.3827 12.1924 11.3492 12.2008 11.3325 12.2175Z" fill="#999999"/>
</svg>
