<svg width="20" height="20" viewBox="0 0 20 20" fill="none" xmlns="http://www.w3.org/2000/svg">
<path d="M14.5125 11.985C14.265 11.8608 13.0475 11.2625 12.8208 11.1792C12.5933 11.0967 12.4283 11.0558 12.2625 11.3042C12.0983 11.5517 11.6233 12.1092 11.4791 12.2742C11.335 12.44 11.19 12.46 10.9425 12.3367C10.695 12.2117 9.89665 11.9508 8.95082 11.1075C8.21499 10.4509 7.71749 9.64002 7.57332 9.39169C7.42915 9.14419 7.55832 9.01002 7.68165 8.88669C7.79332 8.77585 7.92999 8.59752 8.05332 8.45335C8.17749 8.30835 8.21832 8.20502 8.30165 8.03919C8.38415 7.87419 8.34332 7.73002 8.28082 7.60585C8.21832 7.48169 7.72332 6.26252 7.51749 5.76669C7.31582 5.28419 7.11166 5.35003 6.95999 5.34169C6.81582 5.33503 6.65082 5.33336 6.48499 5.33336C6.31999 5.33336 6.05166 5.39503 5.82499 5.64336C5.59832 5.89086 4.95833 6.49002 4.95833 7.70919C4.95833 8.92752 5.84582 10.105 5.96916 10.2709C6.09332 10.4359 7.71582 12.9375 10.2 14.01C10.7908 14.265 11.2516 14.4175 11.6116 14.5308C12.205 14.72 12.745 14.6933 13.1708 14.6292C13.6466 14.5583 14.6358 14.03 14.8425 13.4517C15.0491 12.8733 15.0491 12.3775 14.9866 12.2742C14.925 12.1708 14.7608 12.1092 14.5125 11.985ZM9.99415 18.1542H9.99082C8.51563 18.1543 7.06755 17.7577 5.79832 17.0058L5.49749 16.8275L2.38 17.6458L3.21166 14.6058L3.01583 14.2942C2.1912 12.9811 1.75495 11.4614 1.7575 9.91085C1.75833 5.36919 5.45416 1.6742 9.99748 1.6742C12.1975 1.6742 14.2658 2.53253 15.8208 4.08919C16.588 4.85304 17.1962 5.76146 17.61 6.76189C18.0238 7.76232 18.2351 8.83489 18.2316 9.91752C18.2291 14.4592 14.5341 18.1542 9.99415 18.1542ZM17.005 2.9067C16.0868 1.98247 14.9943 1.24965 13.7909 0.7507C12.5874 0.251754 11.2969 -0.00339687 9.99415 3.41479e-05C4.53166 3.41479e-05 0.0858332 4.44586 0.0833332 9.91002C0.0833332 11.6567 0.539166 13.3617 1.40666 14.8642L0 20L5.25416 18.6217C6.70715 19.4133 8.33535 19.8281 9.98998 19.8283H9.99415C15.4558 19.8283 19.9025 15.3825 19.905 9.91752C19.909 8.61525 19.6548 7.32511 19.157 6.12172C18.6592 4.91833 17.9278 3.82559 17.005 2.9067Z" fill="#999999"/>
</svg>
